<?xml version="1.0" encoding="utf-8"?>
<!-- Generator: Adobe Illustrator 27.5.0, SVG Export Plug-In . SVG Version: 6.00 Build 0)  -->
<svg version="1.1" xmlns="http://www.w3.org/2000/svg" xmlns:xlink="http://www.w3.org/1999/xlink" x="0px" y="0px"
	 viewBox="0 0 750 500" style="enable-background:new 0 0 750 500;" xml:space="preserve">
<g id="BACKGROUND">
	<rect style="fill:#FFFFFF;" width="750" height="500"/>
</g>
<g id="OBJECTS">
	<g>
		<g>
			<path style="fill:#F1A685;" d="M163,84c0,0,1.25-4.625,4.625-2.875s4.5,8.375-1.875,8.75L163,84z"/>
			<path style="fill:#B46D4F;" d="M164.25,85.125c0,0,1.125-2.5,2.625-1.5s0.875,2.75-0.25,3.25s-1.125,0.5-1.125,0.5L164.25,85.125
				z"/>
			<path style="fill:#262624;" d="M117.667,307.667c0,0-6.667,29.333-10,62c-3.333,32.667-2,64.667-4,75.333s0,20.667,0,20.667h78
				c0,0,2.667-54.667,4.667-64c2-9.333,3.333-15,3.333-15h4L201,466h64c0,0-1.5-94.833-9.5-118.5
				c-8-23.667-19.167-54.556-19.167-54.556L117.667,307.667z"/>
			<g>
				<path style="fill:#6D4332;" d="M193.627,387.337c-1.102,0-2.419-0.059-3.996-0.171c-0.275-0.019-0.483-0.259-0.463-0.534
					c0.019-0.275,0.253-0.49,0.534-0.464c8.404,0.604,8.501-0.326,8.756-2.801l0.044-0.423c0.26-2.334-2.068-30.828-3.334-45.568
					c-0.024-0.275,0.18-0.518,0.455-0.541c0.274-0.025,0.517,0.18,0.541,0.455c0.15,1.744,3.667,42.751,3.333,45.766l-0.044,0.414
					C199.175,386.166,198.564,387.336,193.627,387.337z"/>
				<path style="fill:#6D4332;" d="M110.667,354.167c-0.199,0-0.387-0.119-0.465-0.315c-0.102-0.257,0.024-0.548,0.281-0.65
					c0.141-0.056,14.173-5.836,21.675-26.597c-0.061-0.589-0.324-3.317-0.324-6.272c0-3.344,0.648-6.626,0.676-6.764l0.326-3.286
					c0.028-0.274,0.27-0.478,0.547-0.447c0.275,0.027,0.475,0.272,0.448,0.547l-0.334,3.334c-0.014,0.081-0.664,3.374-0.664,6.616
					c0,3.269,0.327,6.249,0.33,6.279c0.008,0.075-0.001,0.152-0.026,0.224c-3.996,11.118-9.825,17.939-14.011,21.703
					c-4.556,4.096-8.126,5.534-8.276,5.593C110.79,354.156,110.728,354.167,110.667,354.167z"/>
				<path style="fill:#6D4332;" d="M178.195,328.25c-1.523,0-2.896-0.13-3.995-0.435c-0.266-0.073-0.422-0.35-0.348-0.615
					c0.074-0.267,0.35-0.423,0.616-0.348c5.85,1.627,20.044-2.035,21.554-3.242c0.881-0.704-0.098-8.425-1.51-15.174
					c-0.057-0.27,0.117-0.535,0.387-0.592c0.271-0.064,0.535,0.117,0.592,0.387c0.719,3.434,2.926,14.745,1.157,16.16
					C195.21,325.539,185.142,328.25,178.195,328.25z"/>
			</g>
			<path style="fill:#6D4332;" d="M192.667,320c0-1.289-1.045-2.333-2.333-2.333c-1.289,0-2.333,1.045-2.333,2.333
				s1.045,2.333,2.333,2.333C191.622,322.333,192.667,321.289,192.667,320z"/>
			<path style="fill:#6D4332;" d="M137.667,313.667c0,0-1.667,13.333,0.333,15c2,1.667,9.667,0.667,11,0
				c1.333-0.667-0.667-12.333,1-16C151.667,309,137.667,313.667,137.667,313.667z"/>
			<path style="fill:#6D4332;" d="M212,303.333c0,0,3.667,13,3.667,15.333c0,2.333,9.333-1.333,10-4c0.667-2.667-2-14-4-15
				S212,303.333,212,303.333z"/>
			<path style="fill:#E6A457;" d="M273.5,165c0,0-20.5-6-36-12.5s-40-14-52-13.5c-2.587,0.108-5.521,0.285-8.535,0.497
				C166,140.269,154,141.5,154,141.5l-30.5,1.5c0,0-2.654,0.151-6.8,0.86c-12.733,2.178-39.533,9.623-46.7,34.14
				c-7.087,24.244-2.766,56.835,3,77.641c1.963,7.085,4.095,12.803,6,16.359c3.576,6.675,9.312,12.214,14.823,16.236
				c6.047,4.414,11.823,7.002,14.177,7.264c0,0,0.5,13,22.5,17.5s75.5,4.5,93.5-12l7-41.5c0,0-16-40-19-54.5c0,0,6,12,23,14
				s59.5,5.5,70,3s24-21,25-28s-4-15-14.5-17.5S273.5,165,273.5,165z"/>
			<path style="fill:#FFE2CE;" d="M176.966,139.497C166,140.269,154,141.5,154,141.5l-30.5,1.5c0,0-2.654,0.151-6.8,0.86
				c0,0,6.3,13.473,34.3,12.473S176.966,139.497,176.966,139.497z"/>
			<path style="fill:#6D4332;" d="M93.823,288.236C88.312,284.214,82.576,278.675,79,272c-1.905-3.556-4.036-9.275-6-16.359
				c0,0,11.5-0.641,19,8.859S93.823,288.236,93.823,288.236z"/>
			<g>
				<path style="fill:#AD7B41;" d="M219,246.5c-0.105,0-0.209-0.033-0.299-0.1c-4.497-3.373-23.429-5.636-40.132-7.633
					c-5.114-0.611-9.944-1.189-14.137-1.771c-3.887-0.54-7.425-0.986-10.622-1.39c-11.778-1.487-18.888-2.384-22.138-5.229
					c-4.111-3.597-5.129-21.105-5.17-21.849c-0.016-0.276,0.196-0.512,0.471-0.527c0.278-0.024,0.512,0.195,0.527,0.471
					c0.01,0.178,1.033,17.829,4.83,21.151c3.021,2.643,10.016,3.526,21.605,4.989c3.201,0.404,6.742,0.852,10.634,1.392
					c4.183,0.581,9.009,1.158,14.118,1.769c16.828,2.012,35.901,4.293,40.613,7.827c0.221,0.165,0.266,0.479,0.1,0.7
					C219.302,246.431,219.152,246.5,219,246.5z"/>
				<path style="fill:#AD7B41;" d="M150.262,300.043c-15.311,0-40.069-3.511-40.333-3.548c-0.273-0.039-0.463-0.292-0.424-0.565
					c0.039-0.273,0.296-0.454,0.566-0.425c0.28,0.041,28.127,3.993,42.913,3.495c14.116-0.471,39.155-3.372,50.277-9.439
					c0.242-0.134,0.546-0.044,0.678,0.199c0.132,0.242,0.043,0.546-0.2,0.678c-11.275,6.15-36.511,9.088-50.723,9.561
					C152.142,300.029,151.22,300.043,150.262,300.043z"/>
			</g>
			<path style="fill:#F09169;" d="M129,115.667c0,0-2.333,28.333-3.333,29.667c0,0,22.667,12.333,45.333-3
				c0,0-5.667-17.333-5.667-20.333S129,115.667,129,115.667z"/>
			<path style="fill:#F1A685;" d="M168.25,93.25c0,0-4.75-8.75-6.5-14s-4.5-9.75-6.5-10.5s-34.5,9-34.5,9l-2.5,9.75L122,101l13,10
				l19.75-4l14.5-7.25L168.25,93.25z"/>
			<path style="fill:#6D4332;" d="M128.5,117.5c0,0,7.25,10,16.5,10.5s22.75-2.5,25.75-12s0-19.75-2.5-22.75
				c0,0-1.75,6.75-11.25,10.25s-23,5.5-27.75,2.25c-4.75-3.25-8-10-8.5-14.75s-1-11.75,5.25-12.25c6.25-0.5,12.75,3.5,22,0.25
				s8.75-9,8.75-9s-2.5-10.25-18.5-7.5s-28,13.75-21,33C124.25,114.75,128.5,117.5,128.5,117.5z"/>
			<path style="fill:#34170E;" d="M147.334,111.833c0,0,4.333,5.667,10.667,2.833c6.333-2.833,3.833-7.5,3.833-7.5
				S153.834,111.167,147.334,111.833z"/>
			<g>
				<defs>
					<path id="SVGID_1_" d="M147.334,111.833c0,0,4.333,5.667,10.667,2.833c6.333-2.833,3.833-7.5,3.833-7.5
						S153.834,111.167,147.334,111.833z"/>
				</defs>
				<clipPath id="SVGID_00000124865704723931268020000010673319254964896396_">
					<use xlink:href="#SVGID_1_"  style="overflow:visible;"/>
				</clipPath>
				<path style="clip-path:url(#SVGID_00000124865704723931268020000010673319254964896396_);fill:#AE4D32;" d="M163.634,114.164
					c0.559,1.994-1.79,4.396-5.247,5.365s-6.712,0.137-7.271-1.857c-0.559-1.994,1.79-4.396,5.247-5.365
					C159.82,111.339,163.076,112.17,163.634,114.164z"/>
			</g>
			<path style="fill:#B46D4F;" d="M153.167,103.834c-0.178,0-0.35-0.095-0.44-0.263c-0.131-0.243-0.04-0.546,0.203-0.677
				c0.04-0.021,3.916-2.184,3.106-4.208c-0.553-1.383-1.753-3.908-2.812-6.135c-0.847-1.782-1.646-3.465-2.019-4.358
				c-0.106-0.255,0.014-0.548,0.269-0.654c0.254-0.105,0.548,0.014,0.654,0.269c0.363,0.871,1.158,2.543,1.999,4.313
				c1.065,2.241,2.272,4.781,2.837,6.193c1.152,2.881-3.368,5.355-3.561,5.459C153.328,103.814,153.247,103.834,153.167,103.834z"/>
			<path style="fill:#B46D4F;" d="M128.333,91.834c-0.084,0-0.169-0.021-0.248-0.066c-0.24-0.137-0.323-0.442-0.186-0.682
				c0.14-0.246,3.491-6.03,8.142-7.236c0.265-0.07,0.541,0.091,0.609,0.358c0.069,0.267-0.091,0.54-0.358,0.609
				c-4.247,1.101-7.492,6.708-7.524,6.764C128.676,91.743,128.507,91.834,128.333,91.834z"/>
			<path style="fill:#B46D4F;" d="M162.333,83.666c-0.091,0-0.184-0.025-0.267-0.077c-2.974-1.879-6.967-1.432-7.007-1.426
				c-0.278,0.035-0.523-0.164-0.555-0.438c-0.033-0.274,0.163-0.522,0.437-0.556c0.177-0.021,4.381-0.497,7.66,1.574
				c0.233,0.147,0.303,0.457,0.156,0.69C162.661,83.584,162.499,83.666,162.333,83.666z"/>
			<path style="fill:#5C3123;" d="M139.375,95.875c0,0.782-0.634,1.417-1.417,1.417c-0.782,0-1.417-0.634-1.417-1.417
				s0.634-1.417,1.417-1.417C138.741,94.458,139.375,95.093,139.375,95.875z"/>
			<path style="fill:#5C3123;" d="M161.25,88.25c0,0.782-0.634,1.417-1.417,1.417c-0.782,0-1.417-0.634-1.417-1.417
				s0.634-1.417,1.417-1.417C160.616,86.833,161.25,87.468,161.25,88.25z"/>
			<g>
				<path style="fill:#34170E;" d="M136.625,108.5c-5.583,0-10.125-4.542-10.125-10.125s4.542-10.125,10.125-10.125
					s10.125,4.542,10.125,10.125S142.208,108.5,136.625,108.5z M136.625,89.75c-4.756,0-8.625,3.869-8.625,8.625
					s3.869,8.625,8.625,8.625c4.756,0,8.625-3.869,8.625-8.625S141.381,89.75,136.625,89.75z"/>
				<path style="fill:#34170E;" d="M162.75,98.5c-5.583,0-10.125-4.542-10.125-10.125s4.542-10.125,10.125-10.125
					c5.583,0,10.125,4.542,10.125,10.125S168.333,98.5,162.75,98.5z M162.75,79.75c-4.756,0-8.625,3.869-8.625,8.625
					S157.995,97,162.75,97c4.756,0,8.625-3.869,8.625-8.625S167.506,79.75,162.75,79.75z"/>
				<path style="fill:#34170E;" d="M145.838,95.216l-1.175-0.933c0.148-0.187,3.689-4.565,9.284-4.03l-0.143,1.493
					C149.012,91.286,145.868,95.177,145.838,95.216z"/>
			</g>
			<path style="fill:#F1A685;" d="M119,96c0,0-10-1.375-7.25,7s10.625,0.75,10.625,0.75S122.875,98.625,119,96z"/>
			<path style="fill:#B46D4F;" d="M119.625,98.75c0,0-5-0.375-4.25,2.375c0.75,2.75,3.75,2,4.875,0.5
				C120.25,101.625,120.375,99.25,119.625,98.75z"/>
			<path style="fill:#EF835E;" d="M132.625,103.5c0,0,5.5-4.375,8.25-3.375s2.875,4.75-0.5,5S132.5,108.875,132.625,103.5z"/>
			<path style="fill:#EF835E;" d="M166.25,89c0,0-5.75,2.25-4.5,5s6.5-0.75,6.5-0.75L166.25,89z"/>
		</g>
		<g>
			<path style="fill:#B46D4F;" d="M664.75,175.984c0,0,1.081-4.758,0.865-8.002c-0.216-3.244,2.595-12.327,4.542-14.706
				c1.946-2.379,4.325-6.272,8.867-5.19c0,0,5.839-16.869,9.083-15.571c3.244,1.298-0.216,18.382-0.216,18.382
				s9.516-13.192,12.327-13.408c2.812-0.216-4.109,18.382-4.109,18.382s3.244,1.298,2.811,3.244c0,0,4.974,3.028,3.46,6.704
				c-1.514,3.676-5.623,7.569-5.623,7.569s-9.083,10.813-16.869,12.111l-8.434-4.542L664.75,175.984z"/>
			<g>
				<path style="fill:#8E4B39;" d="M683.399,159.36c-2.775,0-5.422-0.328-5.954-0.397c-0.273-0.036-0.466-0.287-0.431-0.561
					c0.036-0.275,0.288-0.468,0.562-0.431c2.712,0.355,10.112,0.911,11.735-0.771c0.224-0.232,0.303-0.49,0.249-0.814
					c-0.496-2.98-7.146-6.674-9.666-7.847c-0.25-0.116-0.358-0.414-0.242-0.664c0.117-0.252,0.414-0.359,0.664-0.242
					c0.39,0.181,9.547,4.483,10.231,8.589c0.105,0.634-0.072,1.213-0.517,1.672C688.913,159.05,686.095,159.36,683.399,159.36z"/>
				<path style="fill:#8E4B39;" d="M685.967,168.547c-0.277,0-0.537-0.024-0.776-0.076c-0.992-0.212-1.38-0.833-1.53-1.315
					c-0.68-2.178,1.976-6.321,4.73-9.248c3.638-3.865,7.703-2.568,7.876-2.51c0.262,0.087,0.402,0.369,0.315,0.63
					c-0.086,0.262-0.374,0.402-0.63,0.319c-0.15-0.049-3.648-1.138-6.833,2.247c-2.982,3.169-4.961,6.8-4.504,8.265
					c0.067,0.215,0.221,0.515,0.784,0.636c2.767,0.586,9.694-3.529,11.437-5.271c1.367-1.367,1.585-3.146,1.587-3.164
					c0.032-0.274,0.301-0.474,0.554-0.439c0.274,0.031,0.472,0.279,0.44,0.554c-0.011,0.087-0.264,2.146-1.874,3.757
					C695.983,164.49,689.557,168.546,685.967,168.547z"/>
				<path style="fill:#8E4B39;" d="M690.853,174.616c-0.288,0-0.56-0.029-0.811-0.093c-0.546-0.139-0.95-0.478-1.172-0.982
					c-0.832-1.891,1.207-5.789,1.442-6.227c0.131-0.244,0.436-0.334,0.677-0.204c0.243,0.13,0.335,0.434,0.204,0.677
					c-0.799,1.49-1.888,4.261-1.407,5.352c0.098,0.223,0.253,0.351,0.502,0.415c1.929,0.492,6.019-1.817,7.438-2.746
					c0.227-0.151,0.539-0.088,0.691,0.145c0.151,0.231,0.087,0.541-0.144,0.692C698.072,171.778,693.699,174.615,690.853,174.616z"
					/>
			</g>
			<path style="fill:#825C31;" d="M582.5,313c0,0,8.5,44,8.5,79s-4.25,74-4.25,74H528c0,0,2-10.5,0-14.5s0.5-7.5,0-13.5
				s-3-31.5-5-43s-2.5-22-2.5-22s-8,41.5-9,51.5s0,41.5,0,41.5H470c0,0,0-121.5,0-123s11-38.5,11-38.5L582.5,313z"/>
			<g>
				<circle style="fill:#412E19;" cx="526.667" cy="329.333" r="2"/>
				<path style="fill:#333333;" d="M526.667,331.583c-1.24,0-2.25-1.01-2.25-2.25s1.01-2.25,2.25-2.25s2.25,1.01,2.25,2.25
					S527.907,331.583,526.667,331.583z M526.667,327.583c-0.965,0-1.75,0.785-1.75,1.75c0,0.965,0.785,1.75,1.75,1.75
					c0.965,0,1.75-0.785,1.75-1.75C528.417,328.368,527.632,327.583,526.667,327.583z"/>
			</g>
			<g>
				<path style="fill:#624525;" d="M529.403,335.831c-2.14,0-4.975-0.626-6.523-1.013c-0.268-0.067-0.431-0.339-0.364-0.606
					c0.066-0.269,0.336-0.43,0.606-0.364c3.966,0.991,7.818,1.293,8.082,0.634c0.52-1.302,0.872-8.021,0.964-10.5
					c0.011-0.275,0.251-0.473,0.519-0.481c0.276,0.011,0.491,0.242,0.481,0.519c-0.035,0.93-0.357,9.136-1.036,10.834
					C531.841,335.578,530.762,335.831,529.403,335.831z"/>
				<path style="fill:#624525;" d="M559.666,334.5c-0.26,0-0.478-0.201-0.498-0.464c-0.019-0.276,0.188-0.516,0.463-0.535
					c0.093-0.006,9.316-0.678,13.211-1.976c0.263-0.088,0.545,0.055,0.633,0.316c0.087,0.262-0.055,0.545-0.316,0.633
					c-4.014,1.337-13.072,1.997-13.456,2.024C559.691,334.5,559.679,334.5,559.666,334.5z"/>
				<path style="fill:#624525;" d="M587.333,349.167c-0.07,0-0.142-0.015-0.21-0.046c-0.714-0.33-17.54-8.163-20.911-15.581
					c-0.114-0.252-0.003-0.548,0.248-0.662c0.253-0.112,0.548-0.004,0.662,0.248c3.218,7.081,20.249,15.008,20.421,15.087
					c0.25,0.116,0.359,0.413,0.244,0.664C587.703,349.06,587.522,349.167,587.333,349.167z"/>
				<path style="fill:#624525;" d="M500.001,331.5c-0.032,0-0.064-0.003-0.097-0.009c-0.492-0.097-12.12-2.373-16.795-4.711
					c-0.247-0.124-0.347-0.424-0.224-0.671c0.125-0.246,0.425-0.347,0.671-0.224c4.553,2.276,16.42,4.601,16.539,4.623
					c0.27,0.053,0.448,0.315,0.395,0.587C500.445,331.334,500.236,331.5,500.001,331.5z"/>
				<path style="fill:#624525;" d="M572.334,388.167c-0.015,0-0.029-0.001-0.044-0.002c-0.275-0.023-0.479-0.267-0.455-0.541
					c0.656-7.539-2.633-50.156-2.666-50.585c-0.022-0.275,0.184-0.517,0.459-0.537c0.27-0.04,0.517,0.183,0.537,0.459
					c0.137,1.758,3.329,43.129,2.666,50.749C572.809,387.971,572.59,388.167,572.334,388.167z"/>
				<path style="fill:#624525;" d="M566.751,463.5c-0.031,0-0.061-0.003-0.093-0.009c-0.271-0.051-0.45-0.312-0.399-0.583
					c0.009-0.053,0.23-1.451-0.091-7.883c-0.245-4.894,1.299-18.053,2.129-25.122c0.3-2.553,0.536-4.569,0.536-4.903
					c0-0.276,0.224-0.5,0.5-0.5c0.276,0,0.5,0.224,0.5,0.5c0,0.376-0.177,1.895-0.543,5.02c-0.826,7.041-2.364,20.146-2.124,24.955
					c0.332,6.65,0.086,8.061,0.075,8.117C567.197,463.332,566.987,463.5,566.751,463.5z"/>
				<path style="fill:#624525;" d="M517.001,359.167c-0.027,0-0.056-0.002-0.083-0.007c-0.272-0.045-0.457-0.303-0.411-0.575
					c0.652-3.914,0.66-16.129,0.66-16.252c0-0.276,0.224-0.5,0.5-0.5c0.276,0,0.5,0.224,0.5,0.5c0,0.505-0.008,12.421-0.674,16.416
					C517.453,358.994,517.24,359.167,517.001,359.167z"/>
				<path style="fill:#624525;" d="M514.76,373.548c-0.444,0-0.767-0.023-0.918-0.073c-0.381-0.127-1.393-0.465-0.004-10.543
					c0.038-0.273,0.295-0.457,0.563-0.427c0.273,0.037,0.465,0.29,0.427,0.563c-0.549,3.984-0.911,8.638-0.572,9.48
					c1.375,0.229,9.704-0.789,10.467-1.297c0.742-1.064,2.11-16.958,2.11-19.918c0-0.276,0.224-0.5,0.5-0.5
					c0.276,0,0.5,0.224,0.5,0.5c0,0.19-1.077,19.764-2.556,20.75C524.287,372.742,517.389,373.548,514.76,373.548z M514.289,372.614
					h0.01H514.289z"/>
			</g>
			<path style="fill:#66A588;" d="M478.5,311c0,0,21,15,58.5,14.5s48.5-8,51-12.5s2-15,3-25s2-18,3.5-25s1-21,0.5-26s-0.5-5-0.5-5
				s9.5,25,30,34s39-5,43-14.5s14-27.5,15.5-37.5s4.5-20.5,4.5-22s-5-10.5-13-14.5s-12-5.5-12-5.5s-13.5,10-18,16s-4.5,10-5.5,12
				s-2.5,6-2.5,6s-8.5-13-14.5-19s-19-15.5-29-17.5c-4.107-0.821-8.552-1.643-12.641-2.326c-5.867-0.98-11.002-1.674-13.359-1.674
				c-4,0-29-1.5-29-1.5s-3.485-0.774-8.656-1.409C521.375,161.613,509.4,160.968,500,164c-15.5,5-33,20.5-38.5,24s-28,24.5-28,24.5
				s-26,18-33,19.5s-34,10.5-34,10.5s9.5,20.5,6.5,35c0,0,33.5-1,51-5s54.5-37,54.5-37s-4,49-4.5,59S478.5,311,478.5,311z"/>
			<g>
				<defs>
					<path id="SVGID_00000036218042661315547710000000106849164828650159_" d="M478.5,311c0,0,21,15,58.5,14.5s48.5-8,51-12.5
						s2-15,3-25s2-18,3.5-25s1-21,0.5-26s-0.5-5-0.5-5s9.5,25,30,34s39-5,43-14.5s14-27.5,15.5-37.5s4.5-20.5,4.5-22
						s-5-10.5-13-14.5s-12-5.5-12-5.5s-13.5,10-18,16s-4.5,10-5.5,12s-2.5,6-2.5,6s-8.5-13-14.5-19s-19-15.5-29-17.5
						c-4.107-0.821-8.552-1.643-12.641-2.326c-5.867-0.98-11.002-1.674-13.359-1.674c-4,0-29-1.5-29-1.5s-3.485-0.774-8.656-1.409
						C521.375,161.613,509.4,160.968,500,164c-15.5,5-33,20.5-38.5,24s-28,24.5-28,24.5s-26,18-33,19.5s-34,10.5-34,10.5
						s9.5,20.5,6.5,35c0,0,33.5-1,51-5s54.5-37,54.5-37s-4,49-4.5,59S478.5,311,478.5,311z"/>
				</defs>
				<clipPath id="SVGID_00000081610254677600588120000005576054731830369958_">
					<use xlink:href="#SVGID_00000036218042661315547710000000106849164828650159_"  style="overflow:visible;"/>
				</clipPath>
				<g style="clip-path:url(#SVGID_00000081610254677600588120000005576054731830369958_);">
					<path style="fill:#FFE2CE;" d="M564.237,239.315c-3.792,0-7.188-0.604-11.668-2.747c-6.267-2.997-10.471-2.512-15.797-1.899
						c-0.963,0.111-1.96,0.226-3.01,0.326c-3.722,0.354-6.505-0.551-9.731-1.598c-3.242-1.053-6.918-2.247-12.78-2.735
						c-11.947-0.996-28.667-5.318-28.835-5.362l0.504-1.936c0.165,0.043,16.723,4.323,28.497,5.304
						c6.094,0.508,10.052,1.793,13.233,2.826c3.139,1.019,5.616,1.825,8.924,1.509c1.036-0.099,2.021-0.212,2.971-0.321
						c5.425-0.625,10.104-1.163,16.889,2.081c6.422,3.072,10.32,2.752,17.399,2.173c1.07-0.087,2.208-0.181,3.431-0.268
						c9.363-0.668,19.751-2.451,20.655-2.752l0.875,1.75c-1.184,0.395-12.052,2.33-21.387,2.997
						c-1.216,0.087-2.346,0.179-3.41,0.267C568.468,239.137,566.294,239.315,564.237,239.315z"/>
					<path style="fill:#FFE2CE;" d="M575.889,248.132c-6.202,0-12.899-0.262-19.434-0.802c-6.327-0.523-9.916-0.944-12.291-1.223
						c-3.657-0.428-4.316-0.506-7.746-0.114c-5.56,0.633-9.625-0.201-20.494-2.434l-2.831-0.581
						c-12.947-2.647-33.535-9.296-33.742-9.363l0.651-1.897c0.205,0.066,20.684,6.68,33.515,9.304l2.833,0.581
						c10.925,2.245,14.604,2.999,19.826,2.404c3.67-0.42,4.547-0.319,8.235,0.115c2.361,0.277,5.929,0.695,12.219,1.215
						c16.466,1.362,33.925,0.953,41.518-0.971l0.519,1.936C593.931,247.501,585.509,248.132,575.889,248.132z"/>
					<path style="fill:#FFE2CE;" d="M564.978,259.349c-8.398,0-15.586-0.783-19.305-2.07c-5.154-1.785-7.637-1.62-12.583-1.288
						c-3.148,0.209-7.065,0.469-13.111,0.343c-15.681-0.334-42.889-11.921-44.039-12.414l0.787-1.838
						c0.278,0.119,28.003,11.927,43.295,12.252c5.955,0.127,9.827-0.131,12.935-0.339c5.051-0.337,7.832-0.523,13.371,1.394
						c8.243,2.854,34.54,2.939,51.373-2.342l0.6,1.908C588.348,258.076,575.68,259.348,564.978,259.349z"/>
					<path style="fill:#FFE2CE;" d="M568.039,270.793c-7.71,0.001-15.166-0.514-19.654-1.834
						c-6.656-1.957-10.905-1.917-17.949-1.855c-4.721,0.04-10.596,0.097-19.165-0.439c-21.354-1.335-38.653-12.718-38.825-12.833
						l1.109-1.664c0.168,0.111,17.039,11.2,37.841,12.501c8.497,0.53,14.332,0.476,19.022,0.436
						c6.98-0.064,11.59-0.105,18.532,1.936c11.299,3.322,41.001,1.233,45.68-0.637l0.742,1.857
						C591.998,269.611,579.728,270.793,568.039,270.793z"/>
					<path style="fill:#FFE2CE;" d="M558.083,283.834c-10.891,0-22.781-1.937-33.45-3.674c-8.107-1.32-15.765-2.567-22.008-2.828
						c-16.113-0.671-29.001-9.799-29.541-10.186l1.166-1.625c0.128,0.092,12.959,9.168,28.459,9.814
						c6.362,0.265,14.077,1.521,22.245,2.851c12.329,2.009,26.3,4.286,38.313,3.483c19.612-1.308,31.294-5.242,31.409-5.282
						l0.648,1.893c-0.118,0.04-12.022,4.058-31.925,5.386C561.662,283.78,559.886,283.834,558.083,283.834z"/>
					<path style="fill:#FFE2CE;" d="M684.75,221.5c-1.63,0-10.407-2.564-15.573-6.181C664.435,212,662.184,212,655.5,212
						c-4.714,0-5.575-1.715-6.434-4.54c-0.409-1.344-0.872-2.867-2.13-4.629c-2.616-3.662-5.558-6.535-7.315-8.251
						c-0.867-0.847-1.259-1.233-1.453-1.525l1.661-1.113c0.11,0.153,0.658,0.689,1.188,1.207c1.688,1.647,4.827,4.714,7.546,8.52
						c1.449,2.029,1.985,3.792,2.416,5.21c0.69,2.271,0.948,3.122,4.521,3.122c6.765,0,9.565,0,14.823,3.681
						c4.995,3.497,13.244,5.819,14.427,5.819V221.5z"/>
					<path style="fill:#FFE2CE;" d="M685.358,213.021c-3.438,0-10.411-3.395-19.754-8.13c-2.58-1.308-5.017-2.542-7.028-3.486
						c-8.151-3.821-15.826-14.87-16.148-15.338l1.647-1.135c0.076,0.11,7.693,11.072,15.352,14.662
						c2.039,0.956,4.489,2.198,7.083,3.513c6.857,3.476,16.262,8.235,19.125,7.899l0.234,1.986
						C685.707,213.012,685.536,213.021,685.358,213.021z"/>
				</g>
			</g>
			<path style="fill:#FFE2CE;" d="M580.36,167.174c-5.867-0.98-11.002-1.674-13.359-1.674c-4,0-29-1.5-29-1.5
				s-3.485-0.774-8.656-1.409c0,0,0.656,16.409,19.656,18.076c19,1.667,28.333-7,30.667-10.333L580.36,167.174z"/>
			<path style="fill:#34170E;" d="M574,148c0,0,5.75,1,7.25-2.75s-0.75-4.25,3.5-5.75s7.25-4.25,7-9.5s-6.25-8.75-4.25-12.5
				s5.5-9,2.75-12.75s-6.5-0.5-8.75-3.5s-1.75-9-5-11.25s-6.25-1-10,1s-3.5-0.25-6.25-2.25s-7-0.5-9.75,2s-5.25,2.75-7-0.25
				s-6.75-6.5-8.25-2.25s1.75,7.75-2.25,9S522.25,105,526.5,111s4.25,6.5,1.75,8s-4.75,14,4.75,18.25S574,148,574,148z"/>
			<path style="fill:#8E4B39;" d="M536.5,150.75l-0.634,5.708L534.75,166.5c0,0,14.25,18,39.5,2.75c0,0,0-5.578,0.44-13.254
				c0.345-6.018,0.961-13.325,2.06-20.246L536.5,150.75z"/>
			<path style="fill:#B46D4F;" d="M534.5,115c0,0-2.75,16.25-3.5,19.25s-4.25,19.75,15.5,24s27.75-8.25,30.25-22.5l1.5-1.75
				c0,0,7.75,0.5,7.75-6s-6.75-5-7.5-5s1.25-8.25,1.25-8.25l-9.5-10L545,104L534.5,115z"/>
			<path style="fill:#8E4B39;" d="M578.834,127.5l-0.667,3.167c0,0,3.333,0,3.667-2C582.167,126.667,579.667,126.833,578.834,127.5z
				"/>
			<path style="fill:#34170E;" d="M533,110.667c0,0-1.833,6.167,1.5,5.833s3.833-2.333,4.833-0.833s0.833,3.833,5,2.667
				c4.167-1.167,1.833-7.167,5.333-6.833S550,121,556.5,121s5.167-9.667,8.5-9.833c3.333-0.167,0,6.333,3.333,6.5
				c3.333,0.167,5.333-2.667,5.5-1c0.167,1.667-5,5.667-3.167,9.167c1.833,3.5,7.167,0,7.833-2.833s4.167-3.333,4.167-3.333
				l-0.833-10l-14.5-9l-28.667,0.667L533,110.667z"/>
			<g>
				<path style="fill:#8E4B39;" d="M548.667,138c-0.007,0-0.015,0-0.023-0.001c-1.306-0.059-2.271-0.497-2.871-1.301
					c-0.905-1.215-0.732-2.929-0.426-4.153c0.325-1.296,1.315-7.723,1.325-7.788c0.042-0.272,0.294-0.459,0.57-0.418
					c0.272,0.042,0.46,0.297,0.418,0.57c-0.041,0.266-1.008,6.538-1.343,7.878c-0.208,0.83-0.45,2.364,0.257,3.313
					c0.411,0.552,1.123,0.855,2.114,0.9c0.276,0.013,0.489,0.246,0.476,0.522C549.155,137.791,548.933,138,548.667,138z"/>
				<path style="fill:#8E4B39;" d="M534.5,124.334c-0.159,0-0.315-0.076-0.413-0.218c-0.155-0.228-0.097-0.539,0.131-0.695
					c0.135-0.092,3.352-2.244,6.808-2.087c0.275,0.014,0.488,0.248,0.474,0.524c-0.013,0.275-0.225,0.488-0.524,0.475
					c-3.147-0.168-6.162,1.892-6.192,1.913C534.697,124.305,534.598,124.334,534.5,124.334z"/>
				<path style="fill:#8E4B39;" d="M568.167,128.667c-0.142,0-0.281-0.06-0.381-0.176c-3.618-4.247-8.224-4.159-8.269-4.158
					c-0.32,0.035-0.506-0.208-0.516-0.483c-0.009-0.275,0.206-0.506,0.481-0.516c0.212-0.008,5.121-0.122,9.066,4.508
					c0.179,0.21,0.153,0.526-0.057,0.705C568.398,128.627,568.282,128.667,568.167,128.667z"/>
			</g>
			<path style="fill:#5C3123;" d="M538.334,128.083c0,0.782-0.634,1.417-1.417,1.417s-1.417-0.634-1.417-1.417
				c0-0.782,0.634-1.417,1.417-1.417S538.334,127.301,538.334,128.083z"/>
			<path style="fill:#5C3123;" d="M562.5,130.917c0,0.782-0.634,1.417-1.417,1.417c-0.782,0-1.417-0.634-1.417-1.417
				c0-0.782,0.634-1.417,1.417-1.417C561.866,129.5,562.5,130.134,562.5,130.917z"/>
			<path style="fill:#D6755B;" d="M570.167,138c0,0-4.167-2.5-7-2.333c-2.833,0.167-3.333,4-1.667,5.333s6.833,2.167,8.667,1.333
				C572,141.5,572.334,139,570.167,138z"/>
			<path style="fill:#D6755B;" d="M535.667,138.333c3,0.5,4.333-3.5,2-5.333c-1.644-1.292-4.607-1.094-6.216-0.865
				c-0.183,0.93-0.339,1.67-0.45,2.115c-0.143,0.573-0.386,1.648-0.549,3.04C531.604,137.506,533.451,137.964,535.667,138.333z"/>
			<path style="fill:#34170E;" d="M547.667,143.833c0,0,8.333,0.5,11.5-0.667c0,0,0.167,5.5-5.833,6
				S548.834,146.667,547.667,143.833z"/>
			<g>
				<defs>
					<path id="SVGID_00000165234875074316041890000007924373153577072267_" d="M547.667,143.833c0,0,8.333,0.5,11.5-0.667
						c0,0,0.167,5.5-5.833,6S548.834,146.667,547.667,143.833z"/>
				</defs>
				<clipPath id="SVGID_00000080180677318344273430000001833195227883164300_">
					<use xlink:href="#SVGID_00000165234875074316041890000007924373153577072267_"  style="overflow:visible;"/>
				</clipPath>
				<path style="clip-path:url(#SVGID_00000080180677318344273430000001833195227883164300_);fill:#AE4D32;" d="M560.334,147.167
					c0,0-1.667-1.833-8-0.833c-6.333,1-7.667,4.667-7.667,4.667l8.5,2.333L560.334,147.167z"/>
			</g>
		</g>
		<g>
			<path style="fill:#F1A685;" d="M400.667,261.391c0,0-5,14.609-7.333,24.275c-2.333,9.667-6,22.333-7.333,25.667
				c-1.333,3.333-14.333-5-14.333-5L380,255.667L400.667,261.391z"/>
			<path style="fill:#AD7B41;" d="M485.667,198c0,0-0.667-9.667-2.333-16c-1.667-6.333,1.667-17.667,2.667-28.667
				s7.333-31.333-6.333-45.667C466,93.333,455.334,99,455.334,99L444,129.333L451.334,193L485.667,198z"/>
			<path style="fill:#F09169;" d="M459.25,161.203c0,0-3.006,12.829-2.652,23.953L440.95,190l-19.45-11.483l4.951-23.684
				L459.25,161.203z"/>
			<path style="fill:#F1A685;" d="M424,153c0,0,2,12,13.5,15s32.25-3,35.25-23.75c0,0,8-0.5,8-5.5s-5.5-5.25-7-4.25
				s-2.75,2.25-2.75,2.25s-1-6.5-6.25-10.5s-14.5-7.75-15-12.5s-23.5,2.25-23.5,2.25L424,153z"/>
			<path style="fill:#B46D4F;" d="M443.705,150.177c-1.102,0-3.881-1.059-4.786-1.577c-1.28-0.732-0.548-3.372,0.946-7.111
				c0.648-1.618,1.802-6.877,1.814-6.93c0.059-0.269,0.331-0.441,0.595-0.381c0.27,0.059,0.441,0.325,0.382,0.595
				c-0.048,0.219-1.184,5.393-1.858,7.079c-2.013,5.04-1.566,5.775-1.382,5.88c1.195,0.684,3.873,1.505,4.292,1.452
				c0.262-0.089,0.528,0.058,0.616,0.32c0.088,0.262-0.07,0.549-0.332,0.637C443.917,150.165,443.821,150.177,443.705,150.177z"/>
			<path style="fill:#B46D4F;" d="M462,140c-0.209,0-0.404-0.132-0.475-0.342c-1.085-3.254-7.499-6.173-7.564-6.202
				c-0.252-0.113-0.364-0.41-0.251-0.661c0.113-0.253,0.413-0.363,0.661-0.251c0.28,0.126,6.88,3.132,8.102,6.798
				c0.087,0.262-0.055,0.545-0.316,0.632C462.106,139.992,462.053,140,462,140z"/>
			<path style="fill:#B46D4F;" d="M472,138.833c0,0,3.5-3,4.333-1c0.833,2-3.833,2.833-3.833,2.833L472,138.833z"/>
			<path style="fill:#FFFFFF;" d="M476.647,153.544c-0.052,0-0.103-0.001-0.156-0.002c-1.376-0.037-2.413-0.551-3.082-1.526
				c-2.036-2.966,0.145-9.21,0.238-9.475c0.069-0.196,0.288-0.296,0.479-0.228c0.195,0.069,0.298,0.284,0.228,0.479
				c-0.021,0.061-2.147,6.148-0.327,8.8c0.533,0.777,1.346,1.169,2.483,1.2c1.093,0.031,1.818-0.278,2.244-0.938
				c1.305-2.019-0.586-6.958-1.425-8.691c-0.09-0.186-0.012-0.411,0.175-0.501c0.186-0.091,0.409-0.013,0.501,0.174
				c0.13,0.27,3.177,6.642,1.379,9.424C478.834,153.112,477.913,153.544,476.647,153.544z"/>
			<path style="fill:#5C3123;" d="M455.5,143.083c0,0.782-0.634,1.417-1.417,1.417c-0.782,0-1.417-0.634-1.417-1.417
				c0-0.782,0.634-1.417,1.417-1.417C454.866,141.667,455.5,142.301,455.5,143.083z"/>
			<circle style="fill:#5C3123;" cx="430.25" cy="137.25" r="1.417"/>
			<path style="fill:#B46D4F;" d="M431.499,129.833c-0.25,0-0.466-0.187-0.495-0.441c-0.033-0.274,0.163-0.523,0.438-0.555
				c2.816-0.331,5.668-0.501,5.696-0.502c0.27-0.016,0.512,0.194,0.528,0.47c0.017,0.275-0.194,0.512-0.47,0.528
				c-0.028,0.002-2.853,0.17-5.638,0.498C431.539,129.833,431.519,129.833,431.499,129.833z"/>
			<path style="fill:#EF835E;" d="M460,150.167c0,0-6-2.5-6.833,0c-0.833,2.5,4.333,3.333,6,5
				C460.834,156.833,466.167,154.667,460,150.167z"/>
			<path style="fill:#EF835E;" d="M424.167,143.833c0,0,6-1.167,6.333,1c0.333,2.167-6,2.167-7,3
				C422.5,148.667,424.167,143.833,424.167,143.833z"/>
			<path style="fill:#5C3123;" d="M437,154.167c0,0,7.333,2.5,14.167,0.5c0,0-1,5.333-8,5C436.167,159.333,437,154.167,437,154.167z
				"/>
			<path style="fill:#335344;" d="M456.727,183.329c0,0-12.227,5.671-26.477-1.662c0,0-12.583-3.667-21.25,0
				c-8.667,3.667-19.333,38.667-21.667,45c-2.333,6.333-6,27.667-7.333,29c-1.333,1.333,9.333,9.116,20.667,5.725l11-28.725
				c0,0,0.833,34.833-0.417,45.583l0.083,4.585l56.333,7.498L476.249,190C476.249,190,465.12,184.658,456.727,183.329z"/>
			<path style="fill:#FFE2CE;" d="M481.75,317c0,0,4,48.25,4,68.5s-2,39.75-1,45s3.25,9.25,3.25,19s0,16.5,0,16.5H384.5
				c0,0-1-21.25-1.25-39.5s0-27.417,0-38.833c0-11.417,10.5-61.417,14.75-73.917s9-20.5,9-20.5s-2.25-0.5-1.75-3s5.25-11.75,6-12
				c0,0,0.5,1.75,2,2.25s19,4.5,25.25,5s16.25,1.75,25.5,0.25h9L481.75,317z"/>
			<g>
				<path style="fill:#BD9567;" d="M464.333,321.5c-0.153,0-0.306-0.07-0.403-0.204c-3.684-5.025-6.319-16.209-6.43-16.683
					c-0.063-0.269,0.104-0.537,0.374-0.601c0.271-0.061,0.538,0.104,0.601,0.374c0.026,0.114,2.698,11.458,6.262,16.317
					c0.163,0.223,0.115,0.536-0.107,0.699C464.54,321.469,464.436,321.5,464.333,321.5z"/>
				<path style="fill:#BD9567;" d="M433.379,298.866c-4.486,0-9.35-1.98-9.569-2.071c-0.212-0.087-0.337-0.307-0.305-0.532
					c0.331-2.319,2.256-12.269,2.337-12.69c0.054-0.272,0.317-0.448,0.586-0.396c0.271,0.053,0.448,0.315,0.396,0.586
					c-0.02,0.099-1.813,9.369-2.27,12.25c1.313,0.494,5.921,2.101,9.742,1.822c0.273-0.024,0.515,0.188,0.535,0.463
					c0.02,0.275-0.188,0.516-0.463,0.535C434.042,298.855,433.711,298.866,433.379,298.866z"/>
				<path style="fill:#BD9567;" d="M399,311.833c-0.206,0-0.399-0.129-0.472-0.334c-0.092-0.261,0.046-0.547,0.307-0.638
					c9.138-3.206,11.82-13.872,11.846-13.979c0.065-0.268,0.335-0.428,0.604-0.368c0.268,0.065,0.433,0.336,0.368,0.604
					c-0.112,0.46-2.843,11.303-12.487,14.686C399.111,311.824,399.055,311.833,399,311.833z"/>
				<path style="fill:#BD9567;" d="M430.667,466.167c-0.267,0-0.488-0.21-0.5-0.479c-0.006-0.16-0.671-16.266-1-38.68
					c-0.338-22.954-6.272-81.255-6.331-81.785c-0.138-1.248,0.354-4.22,0.574-5.446c-2.317-0.27-3.837-0.929-4.637-2.01
					c-0.882-1.192-0.728-2.646-0.43-4.038c0.486-2.267,0.984-13.471,0.989-13.584c0.013-0.274,0.195-0.479,0.523-0.478
					c0.275,0.013,0.489,0.246,0.477,0.523c-0.02,0.464-0.507,11.401-1.01,13.748c-0.288,1.345-0.355,2.409,0.255,3.233
					c0.672,0.908,2.174,1.468,4.466,1.664c0.141,0.012,0.27,0.083,0.355,0.196c0.086,0.113,0.119,0.257,0.093,0.396
					c-0.227,1.185-0.791,4.516-0.661,5.685c0.059,0.53,5.998,58.888,6.337,81.88c0.329,22.4,0.993,38.494,1,38.654
					c0.011,0.275-0.203,0.509-0.479,0.52C430.681,466.167,430.674,466.167,430.667,466.167z"/>
				<path style="fill:#BD9567;" d="M480.333,466.5c-0.267,0-0.488-0.21-0.5-0.478c-0.01-0.23-1.014-23.077-2.327-31.948
					c-0.854-5.76-0.63-10.579-0.259-18.564c0.207-4.458,0.465-10.006,0.586-17.185c0.33-19.413-3.624-60.53-3.664-60.943
					c-0.026-0.274,0.175-0.519,0.45-0.546c0.258-0.01,0.52,0.175,0.546,0.45c0.04,0.413,3.999,41.587,3.668,61.057
					c-0.122,7.192-0.38,12.749-0.587,17.213c-0.368,7.925-0.591,12.708,0.248,18.372c1.322,8.923,2.328,31.821,2.339,32.052
					c0.012,0.275-0.202,0.509-0.478,0.522C480.348,466.5,480.34,466.5,480.333,466.5z"/>
			</g>
			<g>
				<path style="fill:#AD7B41;" d="M446.834,286c0,0,0.333,4.833,0,8c-0.333,3.167-1.5,5.5,0.167,5.833
					c1.667,0.333,5.5,1.5,6.667-1.167c1.167-2.667,1.167-10-0.167-12.167C453.5,286.5,449.667,284.667,446.834,286z"/>
				<path style="fill:#AD7B41;" d="M412.5,280c0,0-1.833,7.167-2.5,9.5c-0.667,2.333-0.667,4.333-0.667,4.333
					s4.167,1.833,6.333,1.333c0,0,1.833-12,3.5-13.167C419.167,282,415.667,279.5,412.5,280z"/>
				<path style="fill:#AD7B41;" d="M429.815,293.486c-0.166,1.045-0.964,1.788-1.782,1.657c-0.818-0.13-1.347-1.083-1.181-2.128
					c0.166-1.045,0.964-1.788,1.782-1.657C429.453,291.487,429.981,292.44,429.815,293.486z"/>
			</g>
			<path style="fill:#F1A685;" d="M467.5,261.5c0,0-1,17-1.5,21s-11,63-12,66.5s-14.333,21-11.333,22.667c3,1.667,6-4.667,8.333-4
				c2.333,0.667-1.667,23,1,24c2.667,1,3.333-1.667,3.333-1.667l3.667-1.333c0,0,3.667-1,8-8.333c4.333-7.333,3.667-22,2.333-28.333
				c-1.333-6.333,15.333-44.333,18-65.333c2.667-21,2.333-29.333,2.333-29.333L467.5,261.5z"/>
			<path style="fill:#335344;" d="M465.334,225.167l0.478,15.839l0.689,22.828c0,0,9.5,8,23.833,0.167c0,0,7.917-63-7.833-72
				s-25.773-8.671-25.773-8.671L465.334,225.167z"/>
			<g>
				<path style="fill:#263E33;" d="M466.5,264.333c-0.27,0-0.491-0.214-0.5-0.485l-1.167-38.666
					c-0.008-0.276,0.209-0.506,0.485-0.515c0.284-0.009,0.506,0.209,0.515,0.485L467,263.818c0.008,0.275-0.209,0.506-0.485,0.515
					C466.51,264.333,466.505,264.333,466.5,264.333z"/>
				<path style="fill:#263E33;" d="M411.667,233.167c-0.01,0-0.02-0.001-0.029-0.001c-0.275-0.016-0.486-0.252-0.47-0.528
					c0.162-2.761-0.904-13.48-0.915-13.587c-0.028-0.275,0.173-0.52,0.447-0.547c0.271-0.022,0.52,0.173,0.547,0.448
					c0.045,0.444,1.086,10.906,0.919,13.746C412.151,232.961,411.931,233.167,411.667,233.167z"/>
			</g>
			<path style="fill:#AD7B41;" d="M449.75,113.75L455.334,99c0,0-1.833-5.5-8.583-6.25s-24.5,3-38,27.5s-13.5,55-7.75,65.25
				s2.75,13.75,4.5,14.5s11.25-2.5,13-4.75s-1,3.25,0.5,3.75s14-1.25,16-5.25s-1-12.75-4.75-18.5s-5-21-2.25-34.25
				S443,119,449.75,113.75z"/>
			<path style="fill:#B46D4F;" d="M455.333,390.375c-0.021,0-0.043-0.002-0.065-0.006c-0.204-0.036-0.34-0.23-0.304-0.435l2.654-15
				c0.036-0.203,0.227-0.34,0.435-0.304c0.204,0.036,0.34,0.23,0.304,0.435l-2.654,15
				C455.67,390.247,455.512,390.375,455.333,390.375z"/>
			<path style="fill:#B46D4F;" d="M456.727,389.868c-0.153,0-0.297-0.095-0.353-0.247c-0.07-0.194,0.029-0.409,0.225-0.48
				c0.793-0.3,4.387-6.496,7.401-12.314c0.096-0.184,0.321-0.254,0.506-0.16c0.184,0.096,0.256,0.321,0.16,0.506
				c-1.049,2.023-6.354,12.142-7.811,12.673C456.813,389.861,456.77,389.868,456.727,389.868z"/>
		</g>
		<g>
			<path style="fill:#F1A685;" d="M362.75,361.25c0,0-2.25,10.75-3.25,13.25s-1.75,7,0.25,7s6.5-5,9.25-8c0,0,3.75,4.5,4.75,9.25
				s4.5,12.5,6,10.75s2-5.75,2-5.75s-1,8.5,2,6.25s4.25-6.75,4.25-6.75s2.5-0.5,3.5-3.25s1-2.75,1-2.75s2-2.25,1.75-7.5
				s-4-17.75-4.5-19.25S362.75,361.25,362.75,361.25z"/>
			<path style="fill:#B46D4F;" d="M381.75,388.125c-0.207,0-0.375-0.168-0.375-0.375c0-3.931-1.234-13.605-1.247-13.702
				c-0.026-0.206,0.119-0.394,0.324-0.42c0.203-0.023,0.394,0.118,0.42,0.324c0.051,0.4,1.253,9.819,1.253,13.798
				C382.125,387.957,381.957,388.125,381.75,388.125z"/>
			<path style="fill:#B46D4F;" d="M388,387.625c-0.016,0-0.032-0.001-0.049-0.003c-0.205-0.027-0.35-0.215-0.323-0.421
				c0.734-5.627-0.732-13.802-0.747-13.884c-0.037-0.204,0.099-0.399,0.302-0.437c0.222-0.034,0.399,0.1,0.437,0.302
				c0.015,0.083,1.502,8.374,0.753,14.116C388.348,387.487,388.186,387.625,388,387.625z"/>
			<path style="fill:#B46D4F;" d="M392.5,381.625c-0.022,0-0.044-0.002-0.067-0.006c-0.203-0.037-0.339-0.232-0.302-0.437
				c0.479-2.635-0.732-7.29-0.743-7.337c-0.053-0.2,0.066-0.405,0.267-0.458c0.205-0.055,0.406,0.067,0.458,0.267
				c0.053,0.197,1.266,4.863,0.757,7.663C392.836,381.498,392.678,381.625,392.5,381.625z"/>
			<path style="fill:#F77474;" d="M365.667,187.667c0,0,2-5.333-2-10c-4-4.667-9.667-8.333-5-13.667
				c4.667-5.333,4.333-9.667,0.333-11.667s-5.667-4.667-6-12.667c-0.333-8,2.333-15.667,0.333-21c-2-5.333-51.667-11-51.667-11
				s-4,13.333-6,18c-2,4.667-6.333,11.333-10.333,13.667c-4,2.333-3.667,8-2.333,11.667c1.333,3.667-1.667,6.333-5,7
				c-3.333,0.667-12.333,3.333-10.333,10s6,10,6,10l58,9L365.667,187.667z"/>
			<polygon style="fill:#F09169;" points="303.334,154 300.667,162 312.667,170.667 324.667,171.667 334,168 335.667,156.667 			"/>
			<path style="fill:#F1A685;" d="M346,131.333c0,0,10.167-1.333,9.5,5.167c-0.667,6.5-11.333,3.167-11.333,3.167L346,131.333z"/>
			<path style="fill:#B46D4F;" d="M346.334,134.5c0,0,4.667-1.667,4.667,1.167c0,2.833-5,1.667-5,1.667L346.334,134.5z"/>
			<path style="fill:#F1A685;" d="M303.667,120.5c0,0-8.167-3.833-10.333,1.833c-2.167,5.667,7.833,7.333,7.833,7.333L303.667,120.5
				z"/>
			<path style="fill:#B46D4F;" d="M301,124.167c0,0-2.667-3-4.333-0.833c-1.667,2.167,4,3.333,4,3.333L301,124.167z"/>
			<path style="fill:#F1A685;" d="M304.5,111.667c0,0-4.5,18.667-5.5,22.5c-1,3.833-4.333,24.167,18.667,27.667
				S346.334,144,347,137.333c0.667-6.667,1.667-14.833,1.667-14.833l-8.333-4.5l-17.667-11.5L304.5,111.667z"/>
			<path style="fill:#B46D4F;" d="M306.085,123.166c-0.156,0-0.31-0.073-0.407-0.209c-0.161-0.224-0.109-0.536,0.115-0.697
				c0.137-0.099,3.439-2.421,9.842-2.843c0.272-0.016,0.513,0.19,0.532,0.466c0.018,0.275-0.19,0.514-0.466,0.532
				c-6.093,0.401-9.293,2.635-9.325,2.658C306.286,123.136,306.185,123.166,306.085,123.166z"/>
			<path style="fill:#B46D4F;" d="M340.167,133.833c-0.19,0-0.373-0.109-0.456-0.294c-0.031-0.069-3.145-6.924-4.881-8.503
				c-0.204-0.186-0.219-0.502-0.034-0.706c0.186-0.204,0.503-0.218,0.707-0.034c1.888,1.717,4.988,8.542,5.119,8.831
				c0.114,0.252,0.002,0.548-0.25,0.662C340.306,133.819,340.236,133.833,340.167,133.833z"/>
			<path style="fill:#F98A8A;" d="M324.5,91.333c-0.667-0.167-6.333-1.333-10.167,1.833C310.5,96.333,309,97,304.667,98.333
				c-4.333,1.333-8.833,8-4.833,11.667s10,0.333,11.667,2.5c1.667,2.167,0.5,9.5,6.333,9.5c5.833,0,5.167-7.333,7.5-6.167
				c2.333,1.167-0.333,15.5,9.167,15.667s7.5-11.333,10.5-8.833s7.833,1.333,9.833-3.5c2-4.833-0.333-15-13.167-18.667
				C328.834,96.833,324.5,91.333,324.5,91.333z"/>
			<path style="fill:#F77474;" d="M324.667,87.167c0,0-6.333,7.833-1.667,11c4.667,3.167,7.167,0.5,10.167,3.333
				S345.5,104,344.5,99.667c-1-4.333-5.333-6.167-5.167-9C339.5,87.833,331.667,79.5,324.667,87.167z"/>
			<path style="fill:#5C3123;" d="M329.917,134.167c0,0,2.25-0.167,3.75,1c1.5,1.167,2.167-0.417,0.833-1.5
				c-1.333-1.083-3.167-1.333-4.333-0.917C329,133.167,328.917,134.083,329.917,134.167z"/>
			<path style="fill:#5C3123;" d="M307,128.417c0,0,2.25-0.167,3.75,1c1.5,1.167,2.167-0.417,0.833-1.5
				c-1.333-1.083-3.167-1.333-4.333-0.917C306.084,127.417,306,128.333,307,128.417z"/>
			<path style="fill:#B46D4F;" d="M319.667,143.25c-0.015,0-0.03-0.001-0.045-0.002c-2.274-0.203-3.762-0.905-4.421-2.086
				c-0.47-0.842-0.463-1.921,0.019-2.885c0.527-1.054,2.197-7.384,2.796-9.733c0.068-0.268,0.339-0.433,0.608-0.361
				c0.267,0.068,0.429,0.34,0.361,0.608c-0.089,0.349-2.188,8.568-2.871,9.934c-0.125,0.25-0.498,1.13-0.04,1.951
				c0.482,0.863,1.739,1.408,3.637,1.578c0.275,0.024,0.478,0.268,0.454,0.542C320.141,143.054,319.924,143.25,319.667,143.25z"/>
			<path style="fill:#EF835E;" d="M339,141.583c0,0-3.583-2.417-5.917-1c-2.333,1.417,0.833,3.583,2.833,4.5
				c2,0.917,4.083,2.083,4.917,0.167C341.667,143.333,339,141.583,339,141.583z"/>
			<path style="fill:#EF835E;" d="M306.417,133.083c0,0-5.167-0.917-6.583,1.083c-1.417,2,0.75,2.75,4.333,3.583
				C307.75,138.583,309.667,134.75,306.417,133.083z"/>
			<path style="fill:#5C3123;" d="M316.834,147.25c0,0,8.25-0.167,12.583-3.333c0,0,1.083,7.083-4.75,8.167
				C318.834,153.167,316.917,147.667,316.834,147.25z"/>
			<g>
				<defs>
					<path id="SVGID_00000161625384830179755270000003895011744804201916_" d="M316.834,147.25c0,0,8.25-0.167,12.583-3.333
						c0,0,1.083,7.083-4.75,8.167C318.834,153.167,316.917,147.667,316.834,147.25z"/>
				</defs>
				<clipPath id="SVGID_00000134950328488445835580000007383324174995202703_">
					<use xlink:href="#SVGID_00000161625384830179755270000003895011744804201916_"  style="overflow:visible;"/>
				</clipPath>
				<path style="clip-path:url(#SVGID_00000134950328488445835580000007383324174995202703_);fill:#AE4D32;" d="M319.5,152.667
					c0.083-0.25,0.667-3.583,4.417-4.417s6.25,1.25,6.25,1.25l-2.25,4.5l-5.75,0.083L319.5,152.667z"/>
			</g>
			<path style="fill:#FFE2CE;" d="M275.334,278.667l45,10.667c0,0,21.333-58.667,21.333-62.667S334,178,334,178
				s1.333-10.667,1.333-11.667c0-0.973-18.608,6.886-34.656-5.877c-0.669-0.532-1.662-0.261-1.966,0.537
				c-0.867,2.278-2.457,6.336-3.586,8.506c-1.625,3.125-3.625,7.625-5,8.625s-6.5,19.5-6.5,19.5L275.334,278.667z"/>
			<path style="fill:#F1BEA8;" d="M277.334,272.333c0,0,10.667,10.667,38,9l30,4c0,0-10,130.667-9.667,145
				c0.333,14.333,0.667,35.333,0.667,35.333h-59c0,0,3.667-37.333,3.667-47.333s0.333-64.667,0.333-64.667S262.667,401,256,413.333
				C249.334,425.667,239.334,466,239.334,466h-63c0,0,19.333-49,26.667-69.333c7.333-20.333,22.542-51,22.771-53
				S262,271.934,262,271.934L277.334,272.333z"/>
			<path style="fill:#B58F7E;" d="M292.907,285.55c0-0.915-0.742-1.657-1.657-1.657c-0.915,0-1.657,0.742-1.657,1.657
				c0,0.915,0.742,1.657,1.657,1.657C292.165,287.207,292.907,286.465,292.907,285.55z"/>
			<g>
				<path style="fill:#B58F7E;" d="M296.334,291.667c-0.003,0-0.007,0-0.011,0c-0.329-0.007-8.072-0.202-10.522-2.826
					c-0.114-0.121-0.159-0.292-0.121-0.454l2-8.566c0.062-0.27,0.328-0.435,0.601-0.374c0.269,0.064,0.436,0.332,0.373,0.601
					l-1.936,8.294c2.379,2.147,9.553,2.324,9.627,2.326c0.276,0.006,0.495,0.234,0.489,0.511
					C296.828,291.45,296.605,291.667,296.334,291.667z"/>
				<path style="fill:#B58F7E;" d="M281.334,354.167c-0.061,0-0.124-0.011-0.184-0.035c-0.257-0.102-0.382-0.393-0.281-0.649
					c0.663-1.672,1.581-11.492,1.928-15.719c-1.223-0.214-2.159-0.758-2.787-1.62c-0.785-1.077-1.022-2.586-0.665-4.248
					c0.493-2.301,4.292-22.319,4.331-22.521c0.051-0.272,0.31-0.452,0.585-0.398c0.271,0.052,0.449,0.313,0.398,0.584
					c-0.038,0.202-3.84,20.233-4.335,22.544c-0.292,1.361-0.111,2.618,0.495,3.45c0.535,0.733,1.398,1.164,2.566,1.281
					c0.271,0.026,0.47,0.266,0.449,0.537c-0.047,0.58-1.149,14.246-2.034,16.479C281.721,354.048,281.533,354.167,281.334,354.167z"
					/>
			</g>
			<path style="fill:#5C3123;" d="M335.667,181.75c0,0-16.333,70.167-17.5,82.083C317,275.75,309.5,368.967,309.5,368.967
				s4.083,1.283,8.667,1.283c4.583,0,24.167,0.75,30.5,0c6.333-0.75,4.833-8.05,4.833-8.05s25.25,3.634,41.25-8.533
				c0,0,0.75-0.667,0-3.167s-8.667-52.083-8.583-61.167c0.083-9.083-3.643-39.333-6.28-47.833c-2.637-8.5-2.637-24.25-7.137-33
				s-8.25-16.75-8.25-16.75L335.667,181.75z"/>
			<g>
				<defs>
					<path id="SVGID_00000001623217426235354180000010519509894834119611_" d="M335.667,181.75c0,0-16.333,70.167-17.5,82.083
						C317,275.75,309.5,368.967,309.5,368.967s4.083,1.283,8.667,1.283c4.583,0,24.167,0.75,30.5,0
						c6.333-0.75,4.833-8.05,4.833-8.05s25.25,3.634,41.25-8.533c0,0,0.75-0.667,0-3.167s-8.667-52.083-8.583-61.167
						c0.083-9.083-3.643-39.333-6.28-47.833c-2.637-8.5-2.637-24.25-7.137-33s-8.25-16.75-8.25-16.75L335.667,181.75z"/>
				</defs>
				<clipPath id="SVGID_00000124840726297683530310000001828154993908134575_">
					<use xlink:href="#SVGID_00000001623217426235354180000010519509894834119611_"  style="overflow:visible;"/>
				</clipPath>
				<g style="clip-path:url(#SVGID_00000124840726297683530310000001828154993908134575_);">
					
						<ellipse transform="matrix(0.1531 -0.9882 0.9882 0.1531 -2.5025 543.7464)" style="fill:#34170E;" cx="316" cy="273.333" rx="16.333" ry="16.333"/>
					<g>
						<path style="fill:#34170E;" d="M354.137,322.415c-1.712,0.609-3.556,0.941-5.478,0.941c-9.021,0-16.333-7.313-16.333-16.333
							c0-9.021,7.313-16.333,16.333-16.333c2.123,0,4.151,0.405,6.012,1.142L354.137,322.415z"/>
					</g>
					<circle style="fill:#34170E;" cx="340.334" cy="225" r="17.333"/>
					<circle style="fill:#34170E;" cx="325" cy="353.667" r="18"/>
					
						<ellipse transform="matrix(0.1576 -0.9875 0.9875 0.1576 -4.8919 657.5986)" style="fill:#34170E;" cx="383" cy="331.667" rx="16.667" ry="16.667"/>
					
						<ellipse transform="matrix(0.6887 -0.725 0.725 0.6887 -75.6768 359.0645)" style="fill:#34170E;" cx="380.334" cy="267.667" rx="17.333" ry="17.333"/>
				</g>
			</g>
			<path style="fill:#FFFFFF;" d="M304.75,362.084c0,0-1.25,4.416,0,5.916s8.187,3.158,9,2.583c0.813-0.575,5.5-50.083,5.5-61.833
				s4.25-47.25,9-66.5s10.75-58,10.75-58l-5-6.25c0,0-12.25,44.75-17,68.75s-8.75,65-9.75,79.25S305.75,359.918,304.75,362.084z"/>
			<path style="fill:#5C3123;" d="M286.5,176.5c0,0-18-5.75-33.25,7.25c-15.25,13-21.25,22.75-26,28.75c-4.75,6-12.25,27.75-16,31
				s-14,18.25-16,25.5s-1.75,26.25,14.5,31s26-0.75,26-0.75s-6.5,19.25-8,23.5s-7.25,20.25-8.75,23s1.75,5.75,6.75,7.5
				c5,1.75,19.5,8.5,24,9.25s4.5,0.75,4.5,0.75l14-55c0,0,12.5-82,12.5-82.75S286.5,176.5,286.5,176.5z"/>
			<g>
				<defs>
					<path id="SVGID_00000177452474868622270920000013940652849028068023_" d="M286.5,176.5c0,0-18-5.75-33.25,7.25
						c-15.25,13-21.25,22.75-26,28.75c-4.75,6-12.25,27.75-16,31s-14,18.25-16,25.5s-1.75,26.25,14.5,31s26-0.75,26-0.75
						s-6.5,19.25-8,23.5s-7.25,20.25-8.75,23s1.75,5.75,6.75,7.5c5,1.75,19.5,8.5,24,9.25s4.5,0.75,4.5,0.75l14-55
						c0,0,12.5-82,12.5-82.75S286.5,176.5,286.5,176.5z"/>
				</defs>
				<clipPath id="SVGID_00000007391787052008363100000006098583423572829857_">
					<use xlink:href="#SVGID_00000177452474868622270920000013940652849028068023_"  style="overflow:visible;"/>
				</clipPath>
				<g style="clip-path:url(#SVGID_00000007391787052008363100000006098583423572829857_);">
					
						<ellipse transform="matrix(0.9323 -0.3616 0.3616 0.9323 -54.1733 101.8277)" style="fill:#34170E;" cx="245" cy="195.667" rx="17.333" ry="17.333"/>
					
						<ellipse transform="matrix(0.2243 -0.9745 0.9745 0.2243 -24.582 450.4502)" style="fill:#34170E;" cx="270.667" cy="240.667" rx="16.333" ry="16.333"/>
					
						<ellipse transform="matrix(0.155 -0.9879 0.9879 0.155 -76.3054 513.454)" style="fill:#34170E;" cx="262" cy="301.333" rx="16.333" ry="16.333"/>
					<circle style="fill:#34170E;" cx="226.258" cy="340.625" r="16.333"/>
					<circle style="fill:#34170E;" cx="223.334" cy="242" r="17.667"/>
				</g>
			</g>
			<path style="fill:#34170E;" d="M235.75,299.75c-0.048,0-0.098-0.007-0.146-0.022c-0.264-0.081-0.413-0.36-0.331-0.625
				c3.695-12.071,9.178-52.76,9.232-53.17c0.037-0.273,0.284-0.467,0.562-0.429c0.274,0.037,0.466,0.289,0.429,0.562
				c-0.055,0.411-5.548,41.182-9.268,53.33C236.162,299.611,235.965,299.75,235.75,299.75z"/>
			<path style="fill:#34170E;" d="M353.501,362.7c-0.005,0-0.011,0-0.016,0c-0.276-0.009-0.493-0.239-0.485-0.516
				c0,0,0.25-8.199,0.5-17.448c0.093-3.448,0.082-6.929,0.07-10.613c-0.02-6.19-0.04-12.592,0.431-19.656
				c0.632-9.475-0.162-36.464-0.422-45.332c-0.048-1.653-0.079-2.689-0.079-2.885c0-0.276,0.224-0.5,0.5-0.5s0.5,0.224,0.5,0.5
				c0,0.193,0.03,1.219,0.079,2.854c0.261,8.881,1.055,35.906,0.42,45.429c-0.469,7.029-0.448,13.413-0.429,19.586
				c0.012,3.693,0.023,7.181-0.07,10.645c-0.25,9.251-0.5,17.452-0.5,17.452C353.992,362.486,353.77,362.7,353.501,362.7z"/>
			<path style="fill:#FFFFFF;" d="M251.5,362.75c0,0,3.75,1.5,7.75,1.75c4,0.25,6,0.25,7-1.25s5.75-37.75,8.25-49.5
				s6.25-51,6.75-62.25s6.25-50,7.25-56.75s4.25-20,4.25-20s-8.5-0.5-8.5,1.25c0,0.75-4.75,23.75-6,31.5s-13.5,99.25-17,113.75
				S253.75,353,253,356S251.5,362.75,251.5,362.75z"/>
			<path style="fill:#F1A685;" d="M232.5,267.75c0,0-1.5-7.75-7-10.25c-5.5-2.5-13.25-1.5-17,2.5s-5.25,9.5-4,13.5s4,8.5,9.5,10.5
				s7.25,2.25,9,1.75s1.75-2,1.75-2l2.75-1.5c0,0,18,4.75,19,3.5s-15.25-10-15.25-10s15.75,4.75,18.25,4S232.5,267.75,232.5,267.75z
				"/>
			<path style="fill:#B46D4F;" d="M224.75,284.125c-0.062,0-0.125-0.016-0.184-0.048l-4-2.25c-0.18-0.102-0.244-0.33-0.142-0.511
				c0.101-0.181,0.328-0.243,0.511-0.143l4,2.25c0.18,0.102,0.244,0.33,0.143,0.511C225.008,284.057,224.881,284.125,224.75,284.125
				z"/>
			<path style="fill:#B46D4F;" d="M232.5,268.125c-0.059,0-0.119-0.014-0.174-0.043l-4.75-2.5c-0.183-0.097-0.253-0.323-0.157-0.507
				c0.098-0.182,0.325-0.252,0.507-0.157l4.75,2.5c0.183,0.097,0.253,0.323,0.157,0.507
				C232.765,268.052,232.635,268.125,232.5,268.125z"/>
			<path style="fill:#B46D4F;" d="M227.5,282.625c-1.712,0-2.79-2.117-2.835-2.207c-0.092-0.186-0.018-0.41,0.167-0.503
				c0.185-0.094,0.41-0.018,0.503,0.167c0.009,0.018,0.917,1.793,2.165,1.793c0.207,0,0.375,0.168,0.375,0.375
				S227.707,282.625,227.5,282.625z"/>
			<path style="fill:#F1A685;" d="M334,178c0,0,17.25-1,27.5,4.5s11.75,15.5,11.75,18.25S373,205.5,373,205.5s0.75,6.25,0,8.5
				s-3.75,0.75-3.75,0.75s1.75,7.75-1.75,7.5s-10.25-16-13.5-20.5s-5-5.5-5-5.5s-0.25,9.25-3.75,10.5s-8.5-10.5-9.75-18.25
				S334,178,334,178z"/>
			<path style="fill:#B46D4F;" d="M369.25,215.125c-0.191,0-0.354-0.145-0.372-0.338c-0.979-10.037-6.141-18.253-6.193-18.335
				c-0.111-0.175-0.06-0.406,0.115-0.518c0.175-0.111,0.406-0.059,0.518,0.115c0.053,0.083,5.31,8.444,6.307,18.665
				c0.021,0.207-0.13,0.39-0.336,0.41C369.274,215.124,369.262,215.125,369.25,215.125z"/>
			<path style="fill:#B46D4F;" d="M373.001,205.875c-0.016,0-0.031-0.001-0.047-0.003c-0.206-0.026-0.352-0.213-0.326-0.419
				c0.197-1.574-1.728-8.179-2.486-10.591c-0.062-0.197,0.048-0.408,0.246-0.47c0.195-0.063,0.408,0.048,0.47,0.246
				c0.113,0.36,2.772,8.852,2.514,10.909C373.349,205.736,373.187,205.875,373.001,205.875z"/>
			<path style="fill:none;stroke:#333333;stroke-width:0.5;stroke-miterlimit:10;" d="M265.75,193.75"/>
			<path style="fill:#F77474;" d="M271.75,174.25c0,0-3.25,13.5,8,14.5s13-12.25,13-14S286,167.5,286,167.5L271.75,174.25z"/>
		</g>
	</g>
</g>
</svg>
