<?xml version="1.0" encoding="utf-8"?>
<!-- Generator: Adobe Illustrator 27.5.0, SVG Export Plug-In . SVG Version: 6.00 Build 0)  -->
<svg version="1.1" xmlns="http://www.w3.org/2000/svg" xmlns:xlink="http://www.w3.org/1999/xlink" x="0px" y="0px"
	 viewBox="0 0 750 500" style="enable-background:new 0 0 750 500;" xml:space="preserve">
<g id="BACKGROUND">
	<rect x="0" y="-0.001" style="fill:#FEF1E2;" width="750" height="500"/>
</g>
<g id="OBJECTS">
	<path id="XMLID_126_" style="opacity:0.51;fill:#FFFFFF;" d="M227.061,112.373c-0.311,1.51-0.635,3.007-1.014,4.501
		c-3.171,12.511-4.17,57.93-48.174,99.647c-43.176,40.933-48.406,110.488,44.987,147.183
		c93.394,36.694,233.638,45.138,324.455-59.136c40.632-46.653,67.391-103.042,37.149-152.373
		c-31.276-51.018-89.451-17.276-130.063-43.195C404.119,76.91,351.154,18.874,279.307,43.348
		C239.504,56.907,228.632,104.74,227.061,112.373z"/>
	<g>
		<g>
			<path style="fill:#F69C96;" d="M308.377,281.815c0,0,13.604,34.376,20.126,107.749c5.676,63.854,7.511,110.637,7.511,110.637
				h-47.798l-16.648-218.386H308.377z"/>
			<g>
				<polygon style="fill:#F69C96;" points="232.138,281.815 207.697,500.202 257.637,500.202 278.454,360.718 295.72,281.815 				
					"/>
				
					<polyline style="fill:none;stroke:#EA1F7C;stroke-width:1.3182;stroke-linecap:round;stroke-linejoin:round;stroke-miterlimit:10;" points="
					277.517,369.153 285.103,323.369 300.98,312.028 				"/>
			</g>
		</g>
		<g>
			<g>
				<g>
					<g>
						<g>
							<g>
								<path style="fill:#3F0417;" d="M223.034,132.742c0,0,5.28,9.62,13.251,12.706c-0.24-0.576-3.916-18.862-3.916-18.862
									L223.034,132.742z"/>
								<g>
									<g>
										<g>
											<g>
												<g>
													<path style="fill:#F8A09C;" d="M232.802,85.671c-1.822,1.001-3.528,2.301-5.067,3.93
														c-13.758,14.565-3.339,41.054,10.161,52.585c7.473,6.382,18.073,9.005,27.033,5.142
														c13.105-5.649,16.557-20.968,13.202-34.299c-2.501-9.933-8.511-19.138-17.008-24.639
														C252.637,82.895,241.42,80.935,232.802,85.671z"/>
												</g>
											</g>
											<g>
												<g>
													<path style="fill:#F8A09C;" d="M232.726,134.299c-2.404,2.625-6.755,3.85-10.192,2.826
														c-3.437-1.024-6.367-4.08-7.415-7.734c-0.94-3.278-0.273-7.089,2.071-9.232c2.344-2.143,6.733-2.227,8.941,0.313
														L232.726,134.299z"/>
												</g>
											</g>
											<g>
												<g>
													<path style="fill:#F8A09C;" d="M233.332,168.41l-4.721-42.74l30.452-0.849l7.05,41.41
														C262.052,166.975,240.188,167.403,233.332,168.41z"/>
												</g>
											</g>
											<g>
												<g>
													<path style="fill:#111010;" d="M264.115,154.495l-0.978-6.487c0,0-12.906,4.652-25.241-5.822
														C237.896,142.186,245.28,154.267,264.115,154.495z"/>
												</g>
											</g>
										</g>
										<g>
											<g>
												<path id="XMLID_121_" style="fill:#222B45;" d="M253.3,122.094c-0.042-0.017-0.084-0.034-0.125-0.051
													c-0.891-0.599-2.008,0.668-1.108,1.272c1.695,1.139,3.815-1.079,2.048-2.385c-1.722-1.272-3.768,1.263-2.116,2.646
													c1.652,1.383,3.769-1.436,1.807-2.483c-1.986-1.06-3.037,2.15-0.82,2.659
													C254.045,123.995,254.358,122.337,253.3,122.094L253.3,122.094z"/>
											</g>
											<g>
												<path id="XMLID_120_" style="fill:#222B45;" d="M273.385,114.855c-0.042-0.017-0.084-0.034-0.125-0.051
													c-0.891-0.599-2.008,0.668-1.108,1.272c1.695,1.139,3.815-1.08,2.048-2.385c-1.722-1.272-3.768,1.264-2.116,2.646
													c1.652,1.383,3.769-1.437,1.807-2.483c-1.986-1.06-3.038,2.15-0.82,2.659
													C274.13,116.755,274.442,115.097,273.385,114.855L273.385,114.855z"/>
											</g>
											<g>
												<path id="XMLID_119_" style="fill:#222B45;" d="M255.66,112.711c-3.55,0.358-7.129,1.079-10.526,2.177
													c-1.503,0.486-0.683,2.799,0.822,2.313c3.204-1.035,6.554-1.705,9.904-2.043
													C257.428,114.999,257.237,112.552,255.66,112.711L255.66,112.711z"/>
												<path id="XMLID_118_" style="fill:#222B45;" d="M265.51,109.324c2.744-1.558,5.734-2.851,8.825-3.759
													c1.368-0.402,2.211,1.806,0.841,2.208c-2.916,0.857-5.711,2.071-8.3,3.541
													C265.664,112.003,264.291,110.016,265.51,109.324L265.51,109.324z"/>
											</g>
										</g>
										<path style="fill:none;stroke:#E67E7C;stroke-width:1.4612;stroke-linecap:round;stroke-miterlimit:10;" d="
											M225.466,129.587c-1.952,0.294-3.718-0.687-3.945-2.192c-0.17-1.129,0.574-2.231,1.78-2.836"/>
									</g>
								</g>
								<path style="fill:#3F0417;" d="M259.696,149.697c-8.013,0.777-25.051-0.833-32.991-26.187l3.673-5.048
									c0,0,18.14,21.772,48.804,1.677c0,0,2.655,19.806-11.987,27.425C264.873,148.772,262.3,149.445,259.696,149.697z"/>
								<path style="fill:#3F0417;" d="M231.262,99.947c0,0,14.493-18.214,33.02-9.574c0,0-15.658-16.479-33.012-8.655
									c-17.354,7.824-17.279,27.143-14.08,38.44c0,0,5.38-3.295,8.941,0.313l0.573,3.038c0,0,5.641,2.926,5.401,2.35
									C231.865,125.283,240.433,105.917,231.262,99.947z"/>
								<path style="fill:#3F0417;" d="M231.262,99.947c0,0,26.685,7.602,41.036-0.841c0,0-10.647-21.399-33.811-12.195
									C218.053,95.029,231.262,99.947,231.262,99.947z"/>
							</g>
						</g>
						<g>
							<g>
								<g>
									<path style="fill:#E67E7C;" d="M265.733,123.638c0.251-0.755,0.603-1.434,0.993-2.087c0.384-0.657,0.826-1.271,1.284-1.874
										l0.437,1.185c-1.277-0.376-2.199-1.164-2.944-2.018c-0.744-0.86-1.336-1.821-1.724-2.873
										c0.846,0.727,1.65,1.44,2.482,2.067c0.425,0.298,0.829,0.614,1.266,0.836c0.426,0.233,0.854,0.43,1.271,0.512l1.116,0.221
										l-0.679,0.965c-0.436,0.619-0.888,1.226-1.398,1.791c-0.504,0.569-1.045,1.111-1.689,1.578
										c-0.121,0.088-0.289,0.061-0.377-0.06C265.718,123.809,265.707,123.717,265.733,123.638z"/>
								</g>
								<g>
									<path style="fill:#E67E7C;" d="M265.733,123.638c0.251-0.755,0.603-1.434,0.993-2.087c0.384-0.657,0.826-1.271,1.284-1.874
										l0.437,1.185c-1.277-0.376-2.199-1.164-2.944-2.018c-0.744-0.86-1.336-1.821-1.724-2.873
										c0.846,0.727,1.65,1.44,2.482,2.067c0.425,0.298,0.829,0.614,1.266,0.836c0.426,0.233,0.854,0.43,1.271,0.512l1.116,0.221
										l-0.679,0.965c-0.436,0.619-0.888,1.226-1.398,1.791c-0.504,0.569-1.045,1.111-1.689,1.578
										c-0.121,0.088-0.289,0.061-0.377-0.06C265.718,123.809,265.707,123.717,265.733,123.638z"/>
								</g>
							</g>
						</g>
					</g>
				</g>
				<path style="fill:none;stroke:#FFFFFF;stroke-width:1.0902;stroke-linecap:round;stroke-miterlimit:10;" d="M261.136,135.204
					c0,0,3.763-5.943,10.599-3.39"/>
			</g>
			<g>
				<g>
					<path style="fill:#CA802F;" d="M283.667,160.947l-15.037-1.452h-2.762c-0.781,2.425-5.061,4.759-11.111,4.945
						c-13.576,0.416-20.667-1.984-23.484-4.945h-27.589c-1.885,0-3.363,1.539-3.317,3.423
						c0.398,16.353,10.715,75.321,27.974,123.261l83.281-1.598C315.079,283.335,291.259,162.609,283.667,160.947z"/>
				</g>
				<g>
					<path style="fill:#F69C96;" d="M270.954,263.476c0,0,27.606,4.494,34.668-6.206l-24.203-6.975l-7.308-2.655L270.954,263.476z"
						/>
					<path style="fill:#CA802F;" d="M219.851,170.643c1.993,16.942,10.943,54.809,19.203,77.292
						c1.956,5.324,16.223,5.301,12.605,9.67l1.014,5.409c-7.115,8.592-35.496,7.099-37.862,4.733
						c-8.236-8.236-20.641-40.893-23.229-60.054c-4.23-31.32,2.588-48.197,12.037-48.197l0,0
						C211.919,159.495,218.881,162.399,219.851,170.643z"/>
					<polygon style="fill:#CA802F;" points="225.938,269.187 274.741,269.187 277.039,241.989 241.31,233.083 225.938,239.116 					
						"/>
					
						<line style="fill:none;stroke:#0087AF;stroke-width:1.3607;stroke-linecap:round;stroke-linejoin:round;stroke-miterlimit:10;" x1="232.442" y1="226.21" x2="223.512" y2="182.122"/>
					
						<line style="fill:none;stroke:#0087AF;stroke-width:1.3607;stroke-linecap:round;stroke-linejoin:round;stroke-miterlimit:10;" x1="235.654" y1="237.962" x2="225.938" y2="239.116"/>
					
						<polyline style="fill:none;stroke:#0087AF;stroke-width:1.3607;stroke-linecap:round;stroke-linejoin:round;stroke-miterlimit:10;" points="
						228.588,268.703 274.879,267.559 275.145,264.413 					"/>
				</g>
				<g>
					<g>
						<path style="fill:#CA802F;" d="M283.666,160.947c-0.724,0.013,43.604,3.607,66.029,94.292
							c4.962,20.066-25.652,12.321-25.652,12.321l-35.755-67.287L283.666,160.947z"/>
					</g>
					<g>
						<path style="fill:#F69C96;" d="M279.917,229.474l-19.095-3.619c-3.802-0.72-7.528-1.772-11.198-3
							c-4.864-1.628-13.088-2.963-17.182,4.489l3.213,10.618c0,0,5.863-4.027,11.272-2.337c4.294,1.342,34.47,9.943,34.493,10.27
							C281.443,246.222,279.917,229.474,279.917,229.474z"/>
						<polygon style="fill:#CA802F;" points="324.043,267.559 275.853,256.026 273.836,227.844 327.76,235.073 						"/>
						
							<line style="fill:none;stroke:#0087AF;stroke-width:1.3607;stroke-linecap:round;stroke-linejoin:round;stroke-miterlimit:10;" x1="273.836" y1="227.844" x2="327.76" y2="235.073"/>
					</g>
				</g>
			</g>
		</g>
	</g>
	<g>
		<g>
			<path style="fill:#769AF2;" d="M345.157,264.553l-0.09,5.982c-6.719,10.198-21.973,41.048-23.653,83.898
				c0,0-6.139,134.903-5.395,145.768h41.097l17.922-169.994l12.088,169.717l47.231,0.278c0,0-4.209-191.718-30.864-229.647
				l-0.562-6.001H345.157z"/>
			
				<line style="fill:none;stroke:#0087AF;stroke-width:1.3607;stroke-linecap:round;stroke-linejoin:round;stroke-miterlimit:10;" x1="375.037" y1="330.207" x2="375.037" y2="270.535"/>
			
				<path style="fill:none;stroke:#0087AF;stroke-width:1.3607;stroke-linecap:round;stroke-linejoin:round;stroke-miterlimit:10;" d="
				M383.397,270.535l-0.088,39.592c-0.134,2.806-1.223,5.482-3.087,7.583l-4.813,5.426"/>
		</g>
		<g>
			<g>
				<g>
					<path style="fill:#FFC88D;" d="M342.217,164.173h48.931c0,0,2.636-66.043-32.125-66.505
						C302.309,96.914,342.217,164.173,342.217,164.173z"/>
					<g>
						<g>
							<g>
								<g>
									<path style="fill:#F69D9B;" d="M359.09,105.287c1.668,0.614,3.275,1.496,4.784,2.677
										c13.487,10.558,8.056,34.279-1.887,45.746c-5.503,6.348-14.13,9.915-22.197,7.792
										c-11.798-3.105-16.669-15.615-15.532-27.311c0.848-8.715,4.755-17.262,11.237-22.996
										C341.969,105.469,351.202,102.382,359.09,105.287z"/>
								</g>
							</g>
							<g>
								<g>
									<path style="fill:#F69D9B;" d="M365.352,146.384c2.367,1.913,6.201,2.393,8.976,1.089c2.775-1.304,4.862-4.26,5.282-7.482
										c0.376-2.891-0.673-6.027-2.927-7.54c-2.254-1.513-5.975-1.025-7.518,1.404L365.352,146.384z"/>
								</g>
							</g>
							<g>
								<g>
									<path style="fill:#F69D9B;" d="M367.731,138.566l1.882,40.753c0.464,7.52-5.008,14.1-12.486,15.016l0,0
										c-8.637,1.057-16.195-5.81-15.969-14.508l0.723-38.097L367.731,138.566z"/>
								</g>
							</g>
							<g>
								<g>
									<path style="fill:#111010;" d="M341.393,167.456v-5.608c0,0,11.503,2.287,20.594-8.139
										C361.987,153.71,357.285,164.863,341.393,167.456z"/>
								</g>
							</g>
							<path style="fill:#FFC88D;" d="M371.53,131.986c-14.59,0.738-28.836-7.656-37.438-19.463c0,0,11.192-14.464,27.493-9.73
								C378.295,107.644,371.53,131.986,371.53,131.986z"/>
							<path style="fill:none;stroke:#B25959;stroke-width:1.2749;stroke-linecap:round;stroke-miterlimit:10;" d="M370.889,141.475
								c1.687,0,3.055-1.055,3.055-2.356c0-0.976-0.77-1.813-1.866-2.171"/>
							<g>
								<g>
									<path style="fill:#B25959;" d="M335.202,142.394c-0.56-0.209-1.027-0.509-1.46-0.843c-0.439-0.328-0.826-0.709-1.198-1.104
										l-0.837-0.889l1.099-0.382c0.509-0.177,1.067-0.624,1.606-1.114c0.541-0.5,1.073-1.058,1.673-1.624
										c-0.085,0.827-0.363,1.604-0.78,2.327c-0.418,0.719-0.99,1.414-1.918,1.857l0.262-1.271
										c0.392,0.375,0.77,0.765,1.095,1.206c0.331,0.436,0.628,0.906,0.832,1.467L335.202,142.394z"/>
								</g>
							</g>
							<g>
								<path style="fill:#1D0300;" d="M326.931,132.79c-0.043,1.067,0.787,1.967,1.854,2.009c1.067,0.043,1.966-0.787,2.009-1.854
									c0.043-1.067-0.787-1.966-1.854-2.009C327.874,130.893,326.974,131.723,326.931,132.79z"/>
								<path style="fill:#1D0300;" d="M343.604,134.935c-0.043,1.067,0.787,1.966,1.854,2.009c1.067,0.043,1.966-0.787,2.009-1.854
									c0.043-1.067-0.787-1.966-1.854-2.009C344.547,133.038,343.647,133.868,343.604,134.935z"/>
							</g>
						</g>
						<g>
							<g>
								
									<path style="fill:none;stroke:#FFFFFF;stroke-width:1.0199;stroke-linecap:round;stroke-linejoin:round;stroke-miterlimit:10;" d="
									M338.285,133.001c-0.426,5.015,3.206,9.419,8.113,9.836c4.907,0.417,9.231-3.31,9.658-8.324
									c0.426-5.015-3.206-9.419-8.113-9.836C343.036,124.259,338.712,127.986,338.285,133.001z"/>
								
									<ellipse transform="matrix(0.0848 -0.9964 0.9964 0.0848 166.9921 445.5821)" style="fill:none;stroke:#FFFFFF;stroke-width:1.0199;stroke-linecap:round;stroke-linejoin:round;stroke-miterlimit:10;" cx="326.042" cy="131.892" rx="8.751" ry="7.642"/>
								
									<path style="fill:none;stroke:#FFFFFF;stroke-width:1.0199;stroke-linecap:round;stroke-linejoin:round;stroke-miterlimit:10;" d="
									M338.285,133.001c0,0-1.771-2.436-4.629-0.461"/>
								
									<line style="fill:none;stroke:#FFFFFF;stroke-width:1.0199;stroke-linecap:round;stroke-linejoin:round;stroke-miterlimit:10;" x1="356.056" y1="134.512" x2="371.193" y2="131.891"/>
							</g>
						</g>
					</g>
				</g>
				<path style="fill:#FFFFFF;" d="M342.288,144.004c-5.433,7.643-9.839,1.756-9.839,1.756L342.288,144.004z"/>
			</g>
			<g>
				<g>
					<g>
						<path style="fill:#F99E99;" d="M424.432,187.218c-4.308,6.394-12.86,8.31-19.484,4.365
							c-7.403-4.409-9.365-14.255-4.216-21.165l37.717-45.893l-37.75-67.088l10.934-7.18c0,0,55.111,71.775,55.809,74.505
							C469.34,132.19,424.432,187.218,424.432,187.218z"/>
						<g>
							<path style="fill:#F99E99;" d="M409.552,69.094c-4.038-2.229-16.63-15.455-24.26-13.696
								c-0.339-0.826-0.193-2.434,0.825-3.077c3.995-2.529,8.887-1.041,8.887-1.041s-10.009-20.68-7.974-21.148
								c2.034-0.469,6.441,9.583,6.441,9.583s-5.69-14.331-3.568-14.14c0.817,0.073,0.382,2.38,5.996,10.1
								c0,0-4.1-13.139-1.851-11.859c2.828,1.608,5.777,9.356,5.777,9.356s-1.348-9.11,0.425-7.971
								c1.292,0.83,15.627,30.723,20.015,37.637C418.59,64.607,409.942,69.765,409.552,69.094z"/>
						</g>
					</g>
				</g>
				<path style="fill:#FD85A7;" d="M370.104,176.475l35.636,45.441l22.497-36.075c0,0-4.698-13.173-17.881-30.893L370.104,176.475"
					/>
			</g>
			<g>
				<path style="fill:#FD85A7;" d="M316.269,189.289c5.653-6.839,13.728-11.08,22.439-12.512c2.724,2.021,8.101,4.947,16.103,4.526
					c8.565-0.451,13.274-3.243,15.293-4.827c8.126,0.717,16.208,2.009,24.176,3.926c10.11,2.224,17.327,12.324,14.889,22.385
					c0,0,6.164,63.982-5.677,67.748l-73.636,7.439c-13.99-5.957-17.751-77.567-17.751-77.567
					C311.327,196.745,313.349,192.821,316.269,189.289z"/>
				<path style="fill:#F99E99;" d="M330.494,218.201c1.807,17.983,4.246,36.387,8.287,49.185
					c27.852-12.994,47.118-26.319,63.978-39.107c4.332-3.316,8.317-6.392,11.353-8.743c0.963-0.748,1.926-1.497,2.883-2.24
					c0.001,0.001,0.001,0.002,0.002,0.003c1.823-1.416,2.897-2.254,2.897-2.255c0,0,6.533-9.862,5.188-14.532
					c0.633-0.313,1.9-0.278,2.451,0.5c2.165,3.055,1.221,7.03,1.221,7.03s14.042-10.473,14.502-8.875
					c0.46,1.598-6.258,7.85-6.258,7.85s11.181-8.355,11.128-6.655c-0.02,0.656,0,0-8.481,8.746c0,0,9.676-5.159,8.774-3.301
					c-1.131,2.334-7.547,7.397-7.547,7.397s7.529-3.9,6.717-2.43c-0.813,1.47-18.796,14.563-18.796,14.563l-4.987,5.551l0,0
					c-4.196,4.273-8.229,8.104-12.104,11.561l-4.58,4.49c-53.63,53.128-80.461,50.577-83.253,48.998
					c-5.675-1.138-15.904-35.863-23.674-72.891c-1.518-7.233,2.343-14.545,9.217-17.261c0.141-0.056,0.283-0.112,0.426-0.168
					C319.188,201.938,329.49,208.204,330.494,218.201z"/>
				<path style="fill:#FD85A7;" d="M338.708,176.776c0,0-40.913,9.751-40.473,39.907c0.247,16.952,8.851,52.82,8.851,52.82
					l40.217-7.961L338.708,176.776z"/>
				
					<line style="fill:none;stroke:#EA1F7C;stroke-width:1.3182;stroke-linecap:round;stroke-linejoin:round;stroke-miterlimit:10;" x1="341.857" y1="246.076" x2="345.326" y2="261.25"/>
			</g>
			
				<line style="fill:none;stroke:#EA1F7C;stroke-width:1.3182;stroke-linecap:round;stroke-linejoin:round;stroke-miterlimit:10;" x1="409.662" y1="214.747" x2="404.948" y2="191.583"/>
		</g>
	</g>
	<g>
		<g>
			<path style="fill:#FF8B23;" d="M489.38,272.699l-21.59,3.873c-7.685,45.56-30.185,199.272-32.068,223.63h51.732l24.799-129.215
				l-14.581-84.972C494.652,281.76,491.95,277.282,489.38,272.699z"/>
			<g>
				<path style="fill:#FF8B23;" d="M552.982,274.561c12.395,178.163,9.109,177.288,11.994,225.641h-50.865L501.894,315.91
					l-12.149-21.694l9.468-18.742L552.982,274.561z"/>
				<g>
					
						<line style="fill:none;stroke:#7321E8;stroke-width:1.3182;stroke-linecap:round;stroke-linejoin:round;stroke-miterlimit:10;" x1="507.156" y1="395.398" x2="506.237" y2="333.324"/>
					
						<line style="fill:none;stroke:#7321E8;stroke-width:1.3182;stroke-linecap:round;stroke-linejoin:round;stroke-miterlimit:10;" x1="505.915" y1="333.438" x2="493.798" y2="322.516"/>
				</g>
			</g>
		</g>
		<g>
			<g>
				<g>
					<path style="fill:#00AA9C;" d="M476.807,148.493c21.565,0.215,32.996,4.135,36.558,7.317c0,0-20.978,51.433-17.601,61.809
						c2.494,7.666,23.882-0.964,23.882-0.964l6.952,29.819c-16.88,10.259-34.667,19.998-50.574,25.501
						c-10.933,3.782-20.472,2.955-28.143-5c-10.409-10.796-13.218-33.491-12.418-46.814
						C441.13,176.498,460.156,148.327,476.807,148.493z"/>
				</g>
				<g>
					<path style="fill:#FDCACA;" d="M591.383,198.68c0.893-2.027-9.273,3.881-9.273,3.881c8.745-9.705,8.749-9.002,8.745-9.705
						c-0.009-1.824-11.663,7.568-11.663,7.568s6.954-6.963,6.398-8.657c-0.556-1.694-15.193,10.079-15.193,10.079
						s0.856-4.296-1.583-7.485c-0.621-0.812-1.981-0.8-2.646-0.44c1.625,4.952-4.99,15.776-4.99,15.776
						c0,0.001-1.119,0.941-3.016,2.53c-0.001-0.001-0.001-0.002-0.002-0.003c-0.997,0.834-1.999,1.674-3.002,2.514
						c-3.161,2.638-7.312,6.091-11.824,9.814c-5.258,4.3-10.755,8.661-16.65,13.063c2.29,7.371,4.529,14.761,6.858,22.115
						c4.823-4.597,9.887-9.694,15.197-15.354l4.733-4.991c4.017-3.856,8.189-8.12,12.518-12.863l0,0l5.126-6.143
						c0,0,18.758-14.735,19.571-16.342c0.813-1.607-7.102,2.867-7.102,2.867S590.262,201.226,591.383,198.68z"/>
				</g>
			</g>
			<g>
				<path style="fill:#2B2622;" d="M538.568,93.63c0,0,7.181,10.674,3.339,26.991c-4.492,19.081-15.332,16.541-15.332,16.541"/>
				<g>
					<g>
						<g>
							<g>
								<g>
									<g>
										<path style="fill:#FDCACA;" d="M525.786,84.214c1.802,0.807,3.516,1.906,5.099,3.33
											c14.145,12.726,6.325,38.603-5.566,50.557c-6.581,6.617-16.413,9.916-25.192,6.95
											c-12.84-4.337-17.288-18.572-15.14-31.448c1.601-9.595,6.581-18.771,14.2-24.633
											C506.797,83.116,517.264,80.396,525.786,84.214z"/>
									</g>
								</g>
								<g>
									<g>
										<path style="fill:#FDCACA;" d="M529.605,130.236c2.478,2.3,6.69,3.123,9.865,1.889c3.175-1.234,5.713-4.352,6.423-7.892
											c0.637-3.175-0.288-6.731-2.672-8.579c-2.384-1.848-6.544-1.589-8.439,0.985L529.605,130.236z"/>
									</g>
								</g>
								<g>
									<g>
										<path style="fill:#FDCACA;" d="M532.835,121.753l-1.009,45.309c-0.042,6.277-3.746,11.715-9.12,14.23
											c-1.792,0.838-3.769,1.352-5.858,1.464l0,0c-9.653,0.516-17.508-7.669-16.597-17.292l3.695-42.167L532.835,121.753z"/>
									</g>
								</g>
								<g>
									<g>
										<path style="fill:#111010;" d="M501.45,151.772l0.426-6.215c0,0,12.575,3.409,23.443-7.456
											C525.319,138.101,519.261,150.105,501.45,151.772z"/>
									</g>
								</g>
							</g>
							<g>
								<g>
									<path id="XMLID_125_" style="fill:#222B45;" d="M509.349,117.949c0.038-0.019,0.076-0.039,0.115-0.058
										c0.798-0.635,1.952,0.478,1.147,1.119c-1.517,1.208-3.694-0.728-2.122-2.1c1.532-1.337,3.664,0.906,2.207,2.342
										c-1.457,1.436-3.678-1.069-1.902-2.211c1.798-1.156,3.041,1.801,0.981,2.454
										C508.791,119.805,508.367,118.26,509.349,117.949L509.349,117.949z"/>
								</g>
								<path id="XMLID_124_" style="fill:#222B45;" d="M506.035,111.653c3.304-0.751,6.745-1.183,10.134-1.222
									c1.5-0.017,1.461,2.313-0.041,2.33c-3.198,0.036-6.416,0.446-9.534,1.155C505.135,114.248,504.567,111.987,506.035,111.653
									L506.035,111.653z"/>
								<g>
									<path id="XMLID_123_" style="fill:#222B45;" d="M489.78,112.644c0.038-0.02,0.076-0.038,0.114-0.058
										c0.798-0.636,1.952,0.478,1.147,1.119c-1.517,1.208-3.694-0.728-2.122-2.1c1.532-1.337,3.664,0.906,2.207,2.342
										c-1.457,1.437-3.678-1.069-1.902-2.211c1.798-1.156,3.041,1.801,0.981,2.454C489.222,114.5,488.798,112.955,489.78,112.644
										L489.78,112.644z"/>
								</g>
								<g>
									<g>
										<path style="fill:#E87E7C;" d="M496.686,123.313c-0.553-0.256-1.007-0.597-1.425-0.969
											c-0.424-0.367-0.792-0.783-1.144-1.212l-0.824-1.004l1.173-0.25c0.255-0.054,0.714-0.473,1.071-0.884
											c0.385-0.421,0.73-0.907,1.095-1.387c0.708-0.979,1.395-2.003,2.15-3.017c-0.226,1.249-0.632,2.442-1.168,3.594
											c-0.262,0.582-0.586,1.136-0.959,1.688c-0.414,0.531-0.794,1.101-1.708,1.49l0.35-1.254
											c0.374,0.41,0.732,0.835,1.034,1.307c0.308,0.467,0.58,0.966,0.754,1.55c0.046,0.154-0.042,0.315-0.196,0.361
											C496.82,123.349,496.748,123.341,496.686,123.313z"/>
									</g>
								</g>
								<path id="XMLID_122_" style="fill:#222B45;" d="M496.413,109.308c-2.247-1.983-4.773-3.768-7.469-5.215
									c-1.193-0.641-2.407,1.247-1.212,1.888c2.543,1.365,4.904,3.038,7.024,4.91
									C495.747,111.767,497.411,110.189,496.413,109.308L496.413,109.308z"/>
							</g>
							<path style="fill:none;stroke:#E87E7C;stroke-width:1.3877;stroke-linecap:round;stroke-miterlimit:10;" d="M536.114,125.217
								c1.87,0.128,3.466-0.937,3.565-2.379c0.074-1.081-0.715-2.068-1.903-2.547"/>
						</g>
					</g>
					<path style="fill:none;stroke:#E87E7C;stroke-width:1.152;stroke-linecap:round;stroke-miterlimit:10;" d="M493.788,130.589
						c0,0,3.685-1.179,10.028,1.64"/>
				</g>
				<path style="fill:#2B2622;" d="M492.741,95.273c0,0,15.825,12.831,34.858,0.642c0,0-8.34,20.53,4.705,22.027l9.623-5.774
					l-0.855-11.548c0,0-3.208-17.536-16.253-20.743C511.774,76.668,495.521,87.361,492.741,95.273z"/>
			</g>
			<path style="fill:#00AA9C;" d="M560.461,180.281c-6.692-20.126-9.685-22.855-9.685-22.855s-7.613-1.689-18.561-2.224
				c-23.19,6.172-33.748-4.787-33.748-4.787c-9.117-0.198-20.402,5.605-25.763,7.677c-14.158,5.472-15.21,7.087-19.61,18.139
				c-6.893,17.316,10.432,113.557,10.432,113.557l94.884,1.787C558.411,291.576,565.417,195.19,560.461,180.281z"/>
			<g>
				<g>
					<path style="fill:#FDCACA;" d="M455.037,161.86L455.037,161.86c2.119,6.063,4.282,11.622,6.462,16.746l2.392,6.449
						c1.578,4.324,3.155,8.423,4.725,12.329c4.98-5.17,10.001-10.295,15.129-15.301c-2.5-4.464-4.852-8.841-7.099-13.138
						c-2.687-5.196-5.149-10.001-7.02-13.669c-0.592-1.166-1.185-2.332-1.773-3.49c-0.001,0.001-0.001,0.001-0.003,0.002
						c-1.121-2.206-1.781-3.51-1.781-3.511c0,0-1.833-12.552,1.606-16.469c-0.471-0.592-1.717-1.137-2.607-0.635
						c-3.496,1.975-4.396,6.262-4.396,6.262s-8.838-16.575-10.014-15.235c-1.176,1.34,2.485,10.474,2.485,10.474
						s-7.03-13.214-7.755-11.54c-0.28,0.645,0,0,4.232,12.36c0,0-7.03-9.425-7.004-7.21c0.031,2.782,3.943,10.624,3.943,10.624
						s-5.523-7.223-5.406-5.426c0.117,1.798,11.583,22.715,11.583,22.715L455.037,161.86z"/>
				</g>
				<g>
					<path style="fill:#00AA9C;" d="M567.545,161.405c-18.745-5.559-37.588-6.295-37.588-6.295s-12.271,43.094-20.983,49.261
						c-6.436,4.556-31.209-40.912-31.209-40.912l-22.781,19.201c20.146,44.297,26.061,62.732,35.946,75.519
						c6.794,8.788,18.171,11.901,29.015,9.906c14.716-2.708,30.021-18.657,36.997-29.335
						C577.311,202.114,583.204,166.049,567.545,161.405z"/>
					
						<path style="fill:none;stroke:#0087AF;stroke-width:1.3607;stroke-linecap:round;stroke-linejoin:round;stroke-miterlimit:10;" d="
						M508.464,201.236c-6.166-0.956-8.933-6.254-17.866-16.173"/>
					
						<path style="fill:none;stroke:#0087AF;stroke-width:1.3607;stroke-linecap:round;stroke-linejoin:round;stroke-miterlimit:10;" d="
						M463.497,197.074c0,0,12.939,76.619,49.712,71.575"/>
				</g>
			</g>
		</g>
	</g>
	<g>
		<g>
			<g>
				<path style="fill:#BDD8E3;" d="M110.281,264.553l-0.09,5.982c-6.719,10.198-21.973,41.048-23.653,83.898
					c0,0-6.139,134.903-5.395,145.768h41.097l17.922-169.994l12.088,169.717l47.231,0.278c0,0-4.209-191.718-30.864-229.647
					l-0.562-6.001H110.281z"/>
			</g>
			
				<line style="fill:none;stroke:#EA1F7C;stroke-width:1.3182;stroke-linecap:round;stroke-linejoin:round;stroke-miterlimit:10;" x1="127.873" y1="330.515" x2="152.701" y2="331.402"/>
		</g>
		<g>
			<g>
				<path style="fill:#171C44;" d="M122.883,154.342c0,0-39.773,8.47-49.313-5.84c-9.733-14.599,7.462-24.008,7.462-24.008
					s2.92-34.714,17.195-42.176s38.283-8.76,49.637,16.221C163.777,133.548,155.65,158.884,122.883,154.342z"/>
				<g>
					<g>
						<g>
							<g>
								<g>
									<path style="fill:#E17953;" d="M112.23,88.304c-1.695,0.89-3.287,2.058-4.731,3.532
										c-12.913,13.174-3.772,37.737,8.461,48.582c6.771,6.003,16.485,8.597,24.799,5.193
										c12.16-4.977,15.598-19.022,12.737-31.351c-2.133-9.187-7.51-17.762-15.239-22.971
										C130.537,86.086,120.244,84.091,112.23,88.304z"/>
								</g>
							</g>
							<g>
								<g>
									<path style="fill:#E17953;" d="M111.334,133.069c-2.258,2.376-6.284,3.429-9.431,2.428
										c-3.147-1.001-5.792-3.864-6.694-7.245c-0.809-3.034-0.131-6.531,2.064-8.464c2.194-1.933,6.236-1.936,8.225,0.44
										L111.334,133.069z"/>
								</g>
							</g>
							<g>
								<g>
									<path style="fill:#E17953;" d="M107.692,125.056l3.733,43.78c0.564,8.095,7.334,14.351,15.448,14.274l0,0
										c9.372-0.088,16.475-8.486,15.007-17.742l-6.14-40.577L107.692,125.056z"/>
								</g>
							</g>
							<g>
								<g>
									<path style="fill:#111010;" d="M139.887,152.194l-0.79-5.988c0,0-11.96,4.063-23.137-5.789
										C115.96,140.418,122.552,151.664,139.887,152.194z"/>
								</g>
							</g>
							<path style="fill:none;stroke:#9E432E;stroke-width:1.0543;stroke-linecap:round;stroke-miterlimit:10;" d="M104.73,128.608
								c-1.802,0.238-3.411-0.696-3.594-2.085c-0.137-1.042,0.566-2.044,1.687-2.581"/>
							<g>
								<g>
									<path style="fill:#9E432E;" d="M142.598,124.281c0.453-1.123,1.122-2.083,1.846-3l0.288,0.827
										c-0.705-0.218-1.153-0.661-1.536-1.095c-0.374-0.449-0.686-0.918-0.947-1.411c-0.528-0.979-0.925-2.008-1.17-3.081
										c0.601,0.916,1.184,1.822,1.815,2.667c0.323,0.415,0.642,0.829,1.003,1.174c0.348,0.347,0.746,0.655,1.095,0.728
										l0.775,0.162l-0.488,0.665c-0.691,0.942-1.437,1.843-2.399,2.579L142.598,124.281z"/>
								</g>
							</g>
							<g>
								<path style="fill:#1D0300;" d="M150.444,113.14c0.196,1.133-0.564,2.211-1.697,2.407c-1.133,0.196-2.211-0.563-2.407-1.697
									c-0.196-1.133,0.563-2.211,1.697-2.407C149.171,111.247,150.248,112.007,150.444,113.14z"/>
								<path style="fill:#1D0300;" d="M132.943,117.779c0.196,1.133-0.564,2.211-1.697,2.407c-1.133,0.196-2.211-0.563-2.407-1.696
									c-0.196-1.133,0.563-2.211,1.697-2.407C131.669,115.887,132.747,116.646,132.943,117.779z"/>
							</g>
						</g>
					</g>
				</g>
				<path style="fill:#171C44;" d="M142.596,90.529c0,0,9.62,12.551-12.339,16.319c-9.373,1.608-5.573,11.941-28.858,10.946
					c-0.238-0.225-0.759-1.39-1.434-3.092c-6.937-17.491,8.436-36.124,26.776-31.919C130.389,83.619,139.185,87.544,142.596,90.529z
					"/>
				<path style="fill:none;stroke:#9E432E;stroke-width:1.1001;stroke-linecap:round;stroke-miterlimit:10;" d="M133.347,130.069
					c0,0,5.553-2.681,10.341-0.191"/>
			</g>
			<g>
				<path style="fill:#71626A;" d="M80.246,178.119c6.702-6.965,21.159-13.405,29.409-15.505c2.724,2.021,8.101,4.947,16.103,4.526
					c8.565-0.451,14.368-3.47,16.386-5.055c8.126,0.717,15.115,2.237,23.082,4.153c10.11,2.224,17.326,12.324,14.889,22.385
					c0,0-7.53,71.312-21.544,75.187h-57.768c-13.99-5.957-17.751-77.567-17.751-77.567
					C82.275,182.583,77.068,181.421,80.246,178.119z"/>
				<g>
					<path style="fill:#E17953;" d="M157.187,207.04c6.933,16.691,13.51,34.052,16.018,47.236
						c-30.684,1.761-53.964-0.839-74.871-4.108c-5.386-0.867-10.354-1.686-14.141-2.317c-1.203-0.203-2.405-0.405-3.6-0.606
						c0,0.001,0,0.002,0,0.003c-2.276-0.383-3.619-0.611-3.62-0.612c0,0-10.427-5.587-11.457-10.337
						c-0.705,0.025-1.805,0.656-1.921,1.602c-0.458,3.717,2.257,6.768,2.257,6.768s-17.328-2.566-16.976-0.941
						c0.352,1.625,9.231,3.945,9.231,3.945s-13.806-2.057-12.952-0.585c0.329,0.568,0,0,11.613,3.681c0,0-10.965,0.044-9.29,1.253
						c2.103,1.519,10.151,2.936,10.151,2.936s-8.478,0.135-7.066,1.044c1.413,0.91,23.453,3.913,23.453,3.913l7.022,2.523l0,0
						c5.72,1.773,11.087,3.235,16.138,4.442l6.162,1.783c72.405,21.359,94.821,6.395,96.531,3.681
						c4.457-3.692-2.996-39.117-13.706-75.403c-2.092-7.089-8.958-11.697-16.298-10.83c-0.151,0.018-0.303,0.036-0.454,0.054
						C159.434,187.361,153.333,197.761,157.187,207.04z"/>
					<path style="fill:#71626A;" d="M142.145,162.086c0,0,24.459,1.859,32.592,7.228c14.149,9.34,26.46,73.569,26.46,73.569
						l-51.54,5.506l-24.472-46.215L142.145,162.086z"/>
				</g>
				<g>
					<path style="fill:#E87E5D;" d="M101.442,204.038c1.807,17.983,4.246,36.387,8.287,49.185
						c27.852-12.994,47.118-26.319,63.979-39.107c4.332-3.316,8.317-6.392,11.353-8.743c0.963-0.748,1.926-1.497,2.883-2.24
						c0.001,0.001,0.001,0.002,0.002,0.003c1.822-1.416,2.897-2.254,2.897-2.255c0,0,6.533-9.862,5.188-14.532
						c0.633-0.313,1.9-0.278,2.451,0.5c2.165,3.055,1.221,7.03,1.221,7.03s14.042-10.473,14.502-8.875
						c0.46,1.598-6.258,7.85-6.258,7.85s11.181-8.355,11.128-6.655c-0.02,0.656,0,0-8.481,8.746c0,0,9.676-5.159,8.774-3.301
						c-1.131,2.334-7.547,7.397-7.547,7.397s7.529-3.9,6.717-2.43c-0.813,1.47-18.796,14.563-18.796,14.563l-4.987,5.551l0,0
						c-4.196,4.273-8.229,8.104-12.105,11.561l-4.58,4.49c-53.63,53.128-80.461,50.577-83.252,48.998
						c-5.675-1.138-15.904-35.863-23.674-72.891c-1.518-7.233,2.343-14.545,9.217-17.261c0.141-0.056,0.283-0.112,0.426-0.168
						C90.136,187.775,100.437,194.041,101.442,204.038z"/>
					<path style="fill:#71626A;" d="M109.29,162.48c0,0-40.547,9.886-40.107,40.042c0.247,16.952,8.851,52.82,8.851,52.82
						l40.217-7.961L109.29,162.48z"/>
				</g>
				<g>
					
						<line style="fill:none;stroke:#FC5806;stroke-width:1.3607;stroke-linecap:round;stroke-linejoin:round;stroke-miterlimit:10;" x1="112.805" y1="231.913" x2="116.273" y2="247.088"/>
				</g>
			</g>
		</g>
	</g>
	<g>
		<g>
			<g>
				<path style="fill:#FC441F;" d="M644.483,259.6l0.092,6.108c6.86,10.412,19.293,67.548,21.009,111.298
					c0,0,9.41,112.103,8.65,123.196h-41.961l-18.298-173.568l-12.342,173.284l-48.224,0.284c0,0,4.297-195.749,31.513-234.475
					l0.574-6.127H644.483z"/>
			</g>
			
				<line style="fill:none;stroke:#EA1F7C;stroke-width:1.346;stroke-linecap:round;stroke-linejoin:round;stroke-miterlimit:10;" x1="626.521" y1="326.948" x2="601.171" y2="327.853"/>
		</g>
		<g>
			<g>
				<g>
					<g>
						<g>
							<path style="fill:#101010;" d="M620.989,152.965l32.835-1.746c0,0-7.507-68.521-43.296-60.391
								c-36.507,8.293-3.776,63.263-3.776,63.263L620.989,152.965z"/>
							<g>
								<g>
									<g>
										<g>
											<path style="fill:#DB7157;" d="M623.138,94.155c1.662,0.682,3.253,1.634,4.732,2.884
												c13.228,11.174,6.848,34.933-3.628,46.144c-5.798,6.206-14.647,9.485-22.717,7.037
												c-11.802-3.581-16.252-16.402-14.663-28.175c1.184-8.773,5.453-17.26,12.217-22.809
												C605.835,93.695,615.278,90.924,623.138,94.155z"/>
										</g>
									</g>
									<g>
										<g>
											<path style="fill:#DB7157;" d="M627.918,135.908c2.32,2.021,6.174,2.651,9.027,1.438
												c2.853-1.213,5.072-4.121,5.617-7.361c0.489-2.906-0.453-6.114-2.674-7.727c-2.221-1.613-5.998-1.26-7.648,1.135
												L627.918,135.908z"/>
										</g>
									</g>
									<g>
										<g>
											<path style="fill:#DB7157;" d="M630.615,128.1l0.368,41.241c0.186,7.614-5.59,14.057-13.179,14.7l0,0
												c-8.766,0.743-16.143-6.478-15.586-15.258l2.164-38.459L630.615,128.1z"/>
										</g>
									</g>
									<g>
										<g>
											<path style="fill:#111010;" d="M602.92,156.295l0.211-5.665c0,0,11.534,2.743,21.111-7.447
												C624.243,143.183,619.073,154.273,602.92,156.295z"/>
										</g>
									</g>
								</g>
								<g>
									<path id="XMLID_109_" style="fill:#101010;" d="M606.297,118.192c3.077,0.203,6.19,0.72,9.156,1.567
										c1.313,0.375,0.673,2.397-0.641,2.022c-2.798-0.799-5.711-1.278-8.615-1.47
										C604.838,120.221,604.93,118.102,606.297,118.192L606.297,118.192z"/>
									<g>
										<g>
											<path id="XMLID_108_" style="fill:#101010;" d="M608.65,124.039c0.034-0.019,0.069-0.037,0.102-0.056
												c0.707-0.601,1.789,0.379,1.075,0.985c-1.345,1.142-3.381-0.557-1.99-1.85c1.356-1.259,3.359,0.72,2.074,2.067
												c-1.284,1.348-3.376-0.868-1.793-1.957c1.603-1.103,2.817,1.552,0.962,2.204
												C608.195,125.744,607.766,124.35,608.65,124.039L608.65,124.039z"/>
										</g>
										<g>
											<path id="XMLID_107_" style="fill:#101010;" d="M590.7,119.77c0.034-0.019,0.069-0.037,0.103-0.056
												c0.707-0.601,1.789,0.379,1.075,0.985c-1.346,1.142-3.381-0.557-1.99-1.85c1.356-1.259,3.358,0.72,2.074,2.067
												c-1.285,1.348-3.376-0.868-1.793-1.957c1.603-1.103,2.817,1.552,0.962,2.204
												C590.245,121.473,589.815,120.08,590.7,119.77L590.7,119.77z"/>
										</g>
									</g>
									<g>
										<g>
											<path style="fill:#9F361A;" d="M597.821,130.506c-0.926-0.521-1.647-1.23-2.316-1.987l-0.016-0.018
												c-0.195-0.22-0.174-0.557,0.047-0.751c0.055-0.048,0.119-0.084,0.184-0.106c0.531-0.177,1.068-0.603,1.574-1.068
												c0.507-0.473,0.992-1.001,1.51-1.541c-0.167,0.733-0.483,1.42-0.909,2.051c-0.428,0.627-0.981,1.224-1.809,1.575
												l0.215-0.875c0.7,0.729,1.348,1.506,1.79,2.472c0.044,0.097,0.002,0.211-0.095,0.255
												C597.938,130.54,597.873,130.534,597.821,130.506z"/>
										</g>
									</g>
									<path id="XMLID_106_" style="fill:#101010;" d="M597.382,116.588c-2.508-1.072-5.201-1.892-7.943-2.372
										c-1.214-0.213-1.724,1.765-0.508,1.978c2.588,0.453,5.105,1.224,7.472,2.236
										C597.51,118.903,598.496,117.064,597.382,116.588L597.382,116.588z"/>
								</g>
								
									<path style="fill:none;stroke:#9F361A;stroke-width:1.0847;stroke-linecap:round;stroke-linejoin:round;stroke-miterlimit:10;" d="
									M633.696,131.158c1.705,0.063,3.127-0.951,3.176-2.265c0.037-0.986-0.709-1.86-1.804-2.263"/>
							</g>
							<path style="fill:#101010;" d="M591.66,108.342c0,0,10.589-4.81,11.937-9.255c0,0,11.185,29.989,30.585,23.614
								c0.271-0.936,4.901-4.549,4.901-4.549s-3.404-30.194-26.028-27.618c-7.362,0.838-13.822,5.216-18.01,11.329
								C593.699,103.827,592.462,106.033,591.66,108.342z"/>
						</g>
					</g>
				</g>
				<g>
					<path style="fill:#FEC86D;" d="M663.688,175.515c-6.843-7.112-23.958-13.433-32.383-15.577
						c-2.781,2.064-5.917,4.798-14.087,4.368c-8.745-0.46-12.661-3.325-14.722-4.942c-8.297,0.732-17.441,2.065-25.576,4.022
						c-10.323,2.271-17.691,12.583-15.202,22.855c0,0,7.688,72.811,21.997,76.768h58.983c14.284-6.083,18.124-79.197,18.124-79.197
						C661.617,180.073,666.933,178.887,663.688,175.515z"/>
					<g>
						<path style="fill:#D36C4C;" d="M585.13,205.044c-7.079,17.042-13.793,34.768-16.354,48.229
							c31.329,1.798,55.098-0.857,76.445-4.194c5.499-0.885,10.571-1.721,14.438-2.366c1.228-0.207,2.456-0.414,3.676-0.619
							c0,0.001,0,0.002,0,0.003c2.324-0.391,3.695-0.624,3.696-0.625c0,0,10.647-5.704,11.697-10.554
							c0.72,0.025,1.843,0.67,1.962,1.636c0.468,3.795-2.305,6.911-2.305,6.911s17.693-2.62,17.333-0.96
							c-0.36,1.659-9.425,4.028-9.425,4.028s14.096-2.1,13.225-0.598c-0.336,0.58,0,0-11.858,3.759c0,0,11.195,0.045,9.486,1.279
							c-2.147,1.551-10.365,2.997-10.365,2.997s8.656,0.138,7.214,1.066c-1.442,0.929-23.946,3.995-23.946,3.995l-7.17,2.577l0,0
							c-5.84,1.811-11.32,3.303-16.477,4.535l-6.291,1.82c-73.927,21.808-96.814,6.529-98.56,3.758
							c-4.551-3.77,3.059-39.939,13.994-76.988c2.136-7.238,9.146-11.943,16.641-11.058c0.154,0.018,0.309,0.037,0.464,0.055
							C582.837,184.951,589.065,195.57,585.13,205.044z"/>
						<path style="fill:#FEC86D;" d="M602.497,159.364c0,0-26.982,1.68-35.286,7.161c-14.446,9.536-27.017,75.116-27.017,75.116
							l52.623,5.622l24.987-47.186L602.497,159.364z"/>
					</g>
				</g>
				
					<path style="fill:none;stroke:#9F361A;stroke-width:1.0847;stroke-linecap:round;stroke-linejoin:round;stroke-miterlimit:10;" d="
					M595.162,134.479c0,0,3.449-2.439,7.592,1.244"/>
			</g>
			<g>
				<g>
					<g>
						<path style="fill:#E17953;" d="M645.779,205.754c7.079,17.042,13.794,34.767,16.354,48.229
							c-31.329,1.798-55.098-0.857-76.445-4.194c-5.499-0.885-10.571-1.721-14.439-2.366c-1.228-0.207-2.456-0.414-3.676-0.619
							c0,0.001,0,0.002,0,0.003c-2.324-0.391-3.695-0.624-3.696-0.625c0,0-10.646-5.704-11.698-10.554
							c-0.72,0.025-1.843,0.67-1.962,1.636c-0.468,3.795,2.305,6.911,2.305,6.911s-17.693-2.62-17.333-0.96
							c0.36,1.659,9.425,4.028,9.425,4.028s-14.096-2.1-13.225-0.598c0.336,0.58,0,0,11.858,3.759c0,0-11.196,0.045-9.486,1.279
							c2.147,1.551,10.365,2.997,10.365,2.997s-8.656,0.138-7.214,1.066c1.442,0.929,23.947,3.995,23.947,3.995l7.169,2.576l0,0
							c5.84,1.81,11.32,3.303,16.477,4.535l6.291,1.82c73.927,21.808,96.814,6.529,98.56,3.758
							c4.551-3.77-3.059-39.939-13.994-76.988c-2.136-7.238-9.146-11.942-16.641-11.058c-0.154,0.018-0.309,0.037-0.464,0.055
							C648.073,185.661,641.844,196.28,645.779,205.754z"/>
						<path style="fill:#FEC86D;" d="M631.306,159.938c0,0,24.089,1.815,32.393,7.296c14.446,9.536,27.017,75.116,27.017,75.116
							l-52.623,5.622l-24.987-47.186L631.306,159.938z"/>
					</g>
				</g>
				<g>
					
						<line style="fill:none;stroke:#0087AF;stroke-width:1.3893;stroke-linecap:round;stroke-linejoin:round;stroke-miterlimit:10;" x1="652.043" y1="216.323" x2="650.862" y2="248.232"/>
					
						<line style="fill:none;stroke:#0087AF;stroke-width:1.3893;stroke-linecap:round;stroke-linejoin:round;stroke-miterlimit:10;" x1="574.045" y1="212.778" x2="572.863" y2="244.686"/>
				</g>
			</g>
		</g>
	</g>
</g>
</svg>
